<svg xmlns="http://www.w3.org/2000/svg" width="48" height="34" fill="none"><path fill="#828E9D" d="M47.522 7.4s-.469-3.31-1.913-4.762C43.781.725 41.737.716 40.8.603 34.088.116 24.01.116 24.01.116h-.02S13.914.116 7.2.603c-.938.113-2.981.122-4.81 2.035C.948 4.09.488 7.4.488 7.4S0 11.29 0 15.172v3.637c0 3.882.478 7.772.478 7.772s.469 3.31 1.903 4.763c1.828 1.912 4.228 1.847 5.297 2.053 3.844.366 16.322.478 16.322.478s10.087-.019 16.8-.497c.938-.112 2.981-.122 4.81-2.034 1.443-1.453 1.912-4.763 1.912-4.763S48 22.701 48 18.81v-3.638c0-3.881-.478-7.772-.478-7.772zM19.04 23.225V9.735l12.965 6.768-12.965 6.722z"/></svg>