<svg xmlns="http://www.w3.org/2000/svg" width="246" height="100" fill="none"><rect width="244.419" height="100" x=".909" fill="#FFEEE7" rx="20"/><path fill="#170F49" d="M94.847 62.5V36.565h9.522c2.075 0 3.779.358 5.113 1.075 1.358.691 2.371 1.642 3.038 2.852.667 1.186 1 2.507 1 3.965a7.87 7.87 0 0 1-1.259 4.334c-.816 1.31-2.1 2.26-3.854 2.853L113.78 62.5h-5.447l-4.816-10.226h-3.928V62.5h-4.742zm4.742-13.709h4.483c1.581 0 2.742-.382 3.483-1.148.741-.766 1.112-1.779 1.112-3.038 0-1.235-.371-2.223-1.112-2.964-.716-.741-1.889-1.112-3.52-1.112h-4.446v8.262zm26.038 14.154c-1.852 0-3.495-.396-4.927-1.186a8.579 8.579 0 0 1-3.372-3.334c-.815-1.433-1.223-3.088-1.223-4.965 0-1.902.396-3.594 1.186-5.076.815-1.482 1.927-2.63 3.334-3.446 1.433-.84 3.113-1.26 5.039-1.26 1.803 0 3.396.396 4.78 1.186a8.35 8.35 0 0 1 3.223 3.26c.79 1.36 1.186 2.878 1.186 4.558 0 .271-.013.555-.037.852 0 .296-.013.605-.037.926h-13.968c.098 1.433.592 2.557 1.482 3.372.914.815 2.013 1.222 3.297 1.222.963 0 1.766-.21 2.408-.63a4.097 4.097 0 0 0 1.482-1.704h4.817a8.773 8.773 0 0 1-1.741 3.187c-.791.938-1.779 1.68-2.964 2.223-1.161.543-2.483.815-3.965.815zm.037-15.413c-1.161 0-2.186.333-3.075 1-.889.642-1.457 1.63-1.704 2.964h9.151c-.074-1.21-.519-2.174-1.334-2.89-.815-.716-1.827-1.074-3.038-1.074zm19.513 15.413c-1.581 0-2.878-.247-3.89-.741-1.013-.52-1.766-1.198-2.26-2.038a5.38 5.38 0 0 1-.741-2.779c0-1.704.666-3.087 2-4.15 1.334-1.062 3.335-1.593 6.002-1.593h4.669V51.2c0-1.26-.358-2.186-1.075-2.779-.716-.593-1.605-.89-2.667-.89-.964 0-1.803.235-2.52.705-.716.444-1.161 1.111-1.334 2h-4.631c.124-1.333.568-2.494 1.334-3.482.79-.988 1.803-1.742 3.038-2.26 1.235-.544 2.618-.815 4.15-.815 2.618 0 4.68.654 6.187 1.963 1.507 1.31 2.26 3.162 2.26 5.558v11.3h-4.038l-.445-2.964a6.791 6.791 0 0 1-2.297 2.445c-.963.642-2.211.964-3.742.964zm1.074-3.705c1.359 0 2.409-.445 3.15-1.334.765-.89 1.247-1.989 1.445-3.298h-4.039c-1.26 0-2.161.235-2.705.704-.543.445-.815 1-.815 1.668 0 .716.272 1.272.815 1.667.544.395 1.26.593 2.149.593zm13.974 3.26V35.824h4.742V62.5h-4.742zm17.776 0c-1.927 0-3.471-.47-4.631-1.408-1.161-.938-1.742-2.606-1.742-5.002v-8.003h-3.149v-3.964h3.149l.556-4.927h4.187v4.927h4.964v3.965h-4.964v8.04c0 .889.185 1.506.555 1.852.396.321 1.062.482 2.001.482h2.297V62.5h-3.223zm9.703 8.151 4.261-9.374h-1.112l-7.15-17.154h5.15l5.15 12.93 5.372-12.93h5.039l-11.671 26.528h-5.039z"/><path fill="#F90" d="M40.909 32.546a1.95 1.95 0 0 1 1.95-1.95h6.206a1.95 1.95 0 0 1 1.95 1.95V46.4H40.909V32.546z"/><path fill="#F44A31" stroke="#F44A31" stroke-linecap="round" stroke-width="4.715" d="M44.04 65.768h29.556a.968.968 0 0 0 .968-.968V47.282a.968.968 0 0 0-.347-.742L59.44 34.16a.968.968 0 0 0-1.244 0L43.42 46.54a.968.968 0 0 0-.346.742V64.8c0 .534.433.968.968.968z"/></svg>