<svg xmlns="http://www.w3.org/2000/svg" width="24" height="26" fill="none"><g filter="url(#a)"><path fill="#fff" d="M19.5 3.125h-1.875V2.75a1.125 1.125 0 1 0-2.25 0v.375h-6.75V2.75a1.125 1.125 0 0 0-2.25 0v.375H4.5A1.875 1.875 0 0 0 2.625 5v15A1.875 1.875 0 0 0 4.5 21.875h15A1.875 1.875 0 0 0 21.375 20V5A1.875 1.875 0 0 0 19.5 3.125zM6.375 5.375a1.125 1.125 0 0 0 2.25 0h6.75a1.125 1.125 0 1 0 2.25 0h1.5v2.25H4.875v-2.25h1.5zm-1.5 14.25v-9.75h14.25v9.75H4.875z"/></g><defs><filter id="a" width="28" height="28" x="-2" y=".5" color-interpolation-filters="sRGB" filterUnits="userSpaceOnUse"><feFlood flood-opacity="0" result="BackgroundImageFix"/><feColorMatrix in="SourceAlpha" result="hardAlpha" values="0 0 0 0 0 0 0 0 0 0 0 0 0 0 0 0 0 0 127 0"/><feOffset dy="2"/><feGaussianBlur stdDeviation="1"/><feComposite in2="hardAlpha" operator="out"/><feColorMatrix values="0 0 0 0 0.186275 0 0 0 0 0.0176471 0 0 0 0 0.382353 0 0 0 0.4 0"/><feBlend in2="BackgroundImageFix" result="effect1_dropShadow_284_905"/><feBlend in="SourceGraphic" in2="effect1_dropShadow_284_905" result="shape"/></filter></defs></svg>