<svg xmlns="http://www.w3.org/2000/svg" width="100" height="34" fill="none"><mask id="a" width="24" height="24" x="0" y="5" maskUnits="userSpaceOnUse" style="mask-type:luminance"><path fill="#fff" d="M.92 5.896H23.7v22.778H.921V5.896Z"/></mask><g mask="url(#a)"><path fill="#0B0B0B" fill-rule="evenodd" d="M7.113 6.351h6.948a.42.42 0 0 1 .368.623l-3.57 6.424H8.19c-2.24 0-3.655-2.405-2.567-4.362l1.49-2.685Zm0 7.997h9.538a.84.84 0 0 1 .72 1.27l-3.155 5.274H8.622c-2.39 0-3.866-2.605-2.639-4.655l1.13-1.889Zm13.47 7.383H7.113l-2.763 4.58a1.258 1.258 0 0 0 1.077 1.907h12.48l3.275-5.427a.7.7 0 0 0-.597-1.06Z" clip-rule="evenodd"/></g><path fill="#0B0B0B" d="m93.606 18.704-.01 6.268h-2.743V14.16h2.403v.48c0 .32-.034.644-.1.971-.086.4-.183.797-.29 1.191h.23c.354-1.006.63-1.654.83-1.941.208-.288.451-.481.732-.58.28-.102.614-.151 1.001-.151H97.2v2.502l-1.782.01c-.674-.006-1.144.134-1.411.42-.294.316-.427.861-.401 1.642Zm-6.864 5.618c-.99.633-2.003.95-3.044.95-1.108 0-2.085-.236-2.934-.71a5.256 5.256 0 0 1-1.981-1.973c-.474-.84-.71-1.802-.71-2.883 0-1.182.233-2.209.7-3.084a5.064 5.064 0 0 1 1.932-2.032c.82-.487 1.764-.73 2.833-.73 1.135 0 2.099.266 2.893.8.794.534 1.381 1.286 1.761 2.253.382.968.515 2.106.401 3.413H85.9v-1c0-1.102-.177-1.893-.53-2.374-.347-.486-.918-.73-1.712-.73-.928 0-1.612.284-2.052.85-.434.562-.651 1.392-.651 2.494 0 1.007.217 1.789.65 2.343.441.547 1.086.82 1.933.82.534 0 .99-.117 1.37-.35.382-.234.672-.571.873-1.012h2.853c-.267 1.335-.898 2.32-1.892 2.955Zm.54-6.018v2.023h-7.167v-2.023h.86l-.09.922h.32c.035-.3.162-.528.382-.682.22-.16.517-.24.89-.24h4.805Zm-14.646 6.217c-.668.501-1.495.75-2.483.75-.922 0-1.729-.249-2.423-.75-.687-.5-1.225-1.182-1.611-2.042-.381-.86-.571-1.832-.571-2.913 0-1.102.193-2.079.58-2.934.394-.86.944-1.538 1.652-2.031.714-.494 1.549-.742 2.503-.742.948 0 1.746.25 2.393.75.647.502 1.134 1.182 1.461 2.043.334.861.5 1.833.5 2.914 0 1.08-.166 2.052-.5 2.912-.333.862-.834 1.543-1.5 2.043Zm.48-13.966h2.743v14.417h-2.402v-.22a2 2 0 0 1 .2-.831c.122-.267.284-.513.48-.73l-.29-.211-.39.54v-5.956h-.342V15.14l.452.47.25-.17a2.415 2.415 0 0 1-.521-.72 1.725 1.725 0 0 1-.18-.712v-3.454ZM69.533 22.41c.373.293.853.44 1.44.44.608 0 1.092-.136 1.452-.41.368-.273.631-.657.791-1.15.16-.495.24-1.07.24-1.723 0-.654-.08-1.229-.24-1.722-.16-.494-.417-.878-.77-1.152-.347-.274-.805-.41-1.372-.41-.608 0-1.108.15-1.501.451-.388.293-.674.69-.862 1.19a4.607 4.607 0 0 0-.28 1.642c0 .608.09 1.162.27 1.663.18.493.458.887.832 1.181Zm-5.973-3.503v6.067h-2.763v-5.107c0-.247-.014-.56-.04-.94a4.262 4.262 0 0 0-.25-1.162 2.19 2.19 0 0 0-.692-.97c-.313-.262-.76-.392-1.34-.392-.235 0-.485.036-.752.11a1.83 1.83 0 0 0-.75.431c-.234.207-.428.514-.581.92-.147.408-.22.949-.22 1.622l-1.132-.74c0-.854.114-1.655.34-2.403a3.38 3.38 0 0 1 1.352-1.812c.674-.46 1.542-.69 2.602-.69.849 0 1.54.143 2.073.43.534.287.948.65 1.241 1.091.3.44.514.901.641 1.382.119.425.196.861.23 1.301.027.394.04.68.04.861Zm-7.408-2.704v8.77h-2.744V14.16h2.403v.3c0 .247-.07.54-.21.88-.12.303-.271.591-.45.862h1Zm-9.08 8.59c-.607.32-1.378.48-2.312.48-.775 0-1.432-.147-1.973-.44a3.132 3.132 0 0 1-1.22-1.192 3.388 3.388 0 0 1-.412-1.652c0-.5.063-.964.191-1.39.133-.435.367-.839.701-1.213.333-.373.791-.667 1.37-.88.741-.274 1.416-.427 2.023-.46a25.548 25.548 0 0 1 1.672-.06c.514 0 1.208.008 2.083.029l-1.031.19c0-.64-.154-1.11-.462-1.41-.306-.302-.82-.452-1.541-.452-.4 0-.818.097-1.251.29-.434.194-.645.514-.631.962h-2.743c0-1.342.444-2.3 1.33-2.874.895-.574 1.993-.86 3.295-.86.955 0 1.802.146 2.543.44a3.175 3.175 0 0 1 1.682 1.522c.213.4.34.8.38 1.201.04.4.06.847.06 1.341v6.608h-2.382v-.341c0-.32.07-.58.21-.78.147-.2.344-.428.59-.681l-.2-.2c-.7.887-1.358 1.495-1.972 1.822Zm-2.543-1.802c.227.093.498.14.811.14.5 0 .92-.087 1.261-.26.347-.18.62-.385.821-.612.207-.226.347-.416.42-.57a2.67 2.67 0 0 0 .24-1.02c.028-.395.041-.722.041-.982l.851.55a41.49 41.49 0 0 0-2.062-.04c-.422.001-.843.024-1.261.07a2.389 2.389 0 0 0-.852.241 2.104 2.104 0 0 0-.58.42 1.51 1.51 0 0 0-.3.49c-.067.174-.1.351-.1.531 0 .247.059.461.18.64.126.174.303.308.53.402Zm-4.476-.561v2.543h-8.93V10.555h2.724v10.693c0 .467-.06.827-.18 1.081a2.134 2.134 0 0 1-.531.69l.15.171a2.59 2.59 0 0 1 .74-.56c.268-.135.628-.201 1.082-.201h4.946Z"/></svg>