<svg xmlns="http://www.w3.org/2000/svg" width="79" height="91" fill="none"><g filter="url(#a)"><path fill="#F943D7" d="M54.117 37.754 48.14 42.91l1.82 7.712a2.179 2.179 0 0 1-3.253 2.367L40 48.862l-6.711 4.128a2.179 2.179 0 0 1-3.25-2.367l1.827-7.712-5.976-5.157a2.187 2.187 0 0 1 1.238-3.832l7.836-.632 3.023-7.316a2.173 2.173 0 0 1 4.02 0l3.021 7.316 7.836.632a2.186 2.186 0 0 1 1.245 3.833l.008-.002Z"/></g><defs><filter id="a" width="77.8" height="77.8" x="1.1" y="15.6" color-interpolation-filters="sRGB" filterUnits="userSpaceOnUse"><feFlood flood-opacity="0" result="BackgroundImageFix"/><feColorMatrix in="SourceAlpha" result="hardAlpha" values="0 0 0 0 0 0 0 0 0 0 0 0 0 0 0 0 0 0 127 0"/><feOffset dy="1"/><feGaussianBlur stdDeviation=".5"/><feComposite in2="hardAlpha" operator="out"/><feColorMatrix values="0 0 0 0 0.775258 0 0 0 0 0.0247423 0 0 0 0 0.635052 0 0 0 0.25 0"/><feBlend in2="BackgroundImageFix" result="effect1_dropShadow_592_1245"/><feColorMatrix in="SourceAlpha" result="hardAlpha" values="0 0 0 0 0 0 0 0 0 0 0 0 0 0 0 0 0 0 127 0"/><feOffset dy="3"/><feGaussianBlur stdDeviation="2.4"/><feComposite in2="hardAlpha" operator="out"/><feColorMatrix values="0 0 0 0 0.775258 0 0 0 0 0.0247423 0 0 0 0 0.635052 0 0 0 0.05 0"/><feBlend in2="effect1_dropShadow_592_1245" result="effect2_dropShadow_592_1245"/><feColorMatrix in="SourceAlpha" result="hardAlpha" values="0 0 0 0 0 0 0 0 0 0 0 0 0 0 0 0 0 0 127 0"/><feOffset dy="14"/><feGaussianBlur stdDeviation="6.75"/><feComposite in2="hardAlpha" operator="out"/><feColorMatrix values="0 0 0 0 0.775258 0 0 0 0 0.0247423 0 0 0 0 0.635052 0 0 0 0.05 0"/><feBlend in2="effect2_dropShadow_592_1245" result="effect3_dropShadow_592_1245"/><feColorMatrix in="SourceAlpha" result="hardAlpha" values="0 0 0 0 0 0 0 0 0 0 0 0 0 0 0 0 0 0 127 0"/><feOffset dy="6"/><feGaussianBlur stdDeviation="4.45"/><feComposite in2="hardAlpha" operator="out"/><feColorMatrix values="0 0 0 0 0.977113 0 0 0 0 0.282887 0 0 0 0 0.847423 0 0 0 0.25 0"/><feBlend in2="effect3_dropShadow_592_1245" result="effect4_dropShadow_592_1245"/><feColorMatrix in="SourceAlpha" result="hardAlpha" values="0 0 0 0 0 0 0 0 0 0 0 0 0 0 0 0 0 0 127 0"/><feOffset dy="15"/><feGaussianBlur stdDeviation="10.95"/><feComposite in2="hardAlpha" operator="out"/><feColorMatrix values="0 0 0 0 0.977113 0 0 0 0 0.282887 0 0 0 0 0.847423 0 0 0 0.15 0"/><feBlend in2="effect4_dropShadow_592_1245" result="effect5_dropShadow_592_1245"/><feBlend in="SourceGraphic" in2="effect5_dropShadow_592_1245" result="shape"/></filter></defs></svg>