<svg xmlns="http://www.w3.org/2000/svg" width="311" height="100" fill="none"><rect width="309.965" height="100" x=".532" fill="#FFF6E8" rx="20"/><path fill="#170F49" d="M112.353 61.653V41.348h-6.938v-3.503h18.264v3.503h-6.972v20.305h-4.354zm17.375.408c-1.451 0-2.641-.227-3.571-.68-.93-.477-1.621-1.1-2.075-1.871a4.943 4.943 0 0 1-.68-2.55c0-1.565.612-2.835 1.837-3.81 1.224-.975 3.061-1.462 5.509-1.462h4.286v-.409c0-1.156-.329-2.006-.987-2.55-.657-.545-1.473-.817-2.448-.817-.885 0-1.656.216-2.313.647-.658.408-1.066 1.02-1.224 1.836h-4.252c.114-1.224.522-2.29 1.225-3.197.725-.907 1.655-1.598 2.788-2.075 1.134-.498 2.404-.748 3.81-.748 2.403 0 4.296.601 5.679 1.803s2.075 2.902 2.075 5.101v10.374h-3.707l-.408-2.721a6.24 6.24 0 0 1-2.109 2.244c-.884.59-2.029.885-3.435.885zm.986-3.401c1.247 0 2.211-.408 2.891-1.225.703-.816 1.145-1.825 1.327-3.027h-3.708c-1.156 0-1.983.216-2.482.647-.499.408-.748.918-.748 1.53 0 .658.249 1.168.748 1.53.499.363 1.156.545 1.972.545zm12.827 2.993V37.165h4.354v24.488h-4.354zm16.998.408c-1.7 0-3.208-.363-4.523-1.089a7.876 7.876 0 0 1-3.095-3.06c-.748-1.316-1.122-2.835-1.122-4.558 0-1.746.362-3.299 1.088-4.66.748-1.36 1.769-2.414 3.061-3.162 1.315-.771 2.857-1.157 4.625-1.157 1.656 0 3.118.363 4.388 1.089a7.668 7.668 0 0 1 2.959 2.992c.725 1.248 1.088 2.642 1.088 4.184 0 .25-.011.51-.034.782 0 .272-.011.556-.034.85h-12.822c.091 1.315.544 2.347 1.36 3.095.839.748 1.848 1.123 3.027 1.123.885 0 1.622-.193 2.211-.579a3.757 3.757 0 0 0 1.36-1.564h4.422a8.05 8.05 0 0 1-1.599 2.925c-.725.861-1.632 1.542-2.721 2.04-1.065.5-2.278.749-3.639.749zm.034-14.149c-1.065 0-2.006.306-2.822.919-.817.59-1.338 1.496-1.565 2.72h8.401c-.068-1.11-.477-1.995-1.225-2.652-.748-.658-1.678-.987-2.789-.987zm12.096 13.74V44.784h3.844l.34 2.857a5.96 5.96 0 0 1 2.244-2.38c.998-.59 2.166-.885 3.503-.885 2.086 0 3.708.658 4.864 1.973 1.156 1.315 1.734 3.242 1.734 5.782v9.523h-4.353v-9.115c0-1.451-.295-2.562-.884-3.333-.59-.771-1.508-1.157-2.755-1.157-1.224 0-2.233.431-3.027 1.293-.771.861-1.156 2.063-1.156 3.605v8.707h-4.354zm28.209 0c-1.769 0-3.186-.43-4.252-1.292-1.065-.861-1.598-2.392-1.598-4.591v-7.346h-2.891v-3.64h2.891l.51-4.523h3.843v4.523h4.558v3.64h-4.558v7.38c0 .816.17 1.383.51 1.7.363.295.975.442 1.837.442h2.109v3.708h-2.959zm13.77.409c-1.496 0-2.811-.238-3.945-.715-1.133-.498-2.04-1.178-2.721-2.04-.68-.862-1.088-1.86-1.224-2.993h4.387c.136.657.499 1.224 1.089 1.7.612.454 1.394.68 2.346.68.953 0 1.644-.192 2.075-.578.454-.385.68-.827.68-1.326 0-.726-.317-1.213-.952-1.462-.635-.272-1.519-.533-2.653-.783a29.113 29.113 0 0 1-2.211-.578 11.355 11.355 0 0 1-2.074-.85 4.818 4.818 0 0 1-1.497-1.36c-.385-.567-.578-1.259-.578-2.075 0-1.497.59-2.755 1.769-3.775 1.201-1.02 2.879-1.53 5.033-1.53 1.996 0 3.583.464 4.762 1.394 1.201.93 1.916 2.21 2.142 3.843h-4.115c-.249-1.247-1.19-1.87-2.823-1.87-.816 0-1.451.158-1.904.475-.431.318-.647.715-.647 1.19 0 .5.329.896.987 1.191.657.295 1.53.567 2.619.816a31.01 31.01 0 0 1 3.231.919c.997.317 1.791.805 2.38 1.462.59.635.885 1.553.885 2.755.022 1.043-.25 1.984-.817 2.823s-1.383 1.496-2.448 1.972c-1.066.477-2.324.715-3.776.715zm17.882-.408c-1.769 0-3.186-.431-4.251-1.293-1.066-.861-1.599-2.392-1.599-4.591v-7.346h-2.891v-3.64h2.891l.51-4.523h3.843v4.523h4.558v3.64h-4.558v7.38c0 .816.171 1.383.511 1.7.362.295.975.442 1.836.442h2.109v3.708h-2.959zm12.614.408c-1.451 0-2.641-.227-3.571-.68-.929-.477-1.621-1.1-2.074-1.871a4.934 4.934 0 0 1-.681-2.55c0-1.565.613-2.835 1.837-3.81 1.224-.975 3.061-1.462 5.51-1.462h4.285v-.409c0-1.156-.329-2.006-.986-2.55-.658-.545-1.474-.817-2.449-.817-.884 0-1.655.216-2.313.647-.657.408-1.065 1.02-1.224 1.836h-4.251c.113-1.224.521-2.29 1.224-3.197.725-.907 1.655-1.598 2.789-2.075 1.133-.498 2.403-.748 3.809-.748 2.403 0 4.297.601 5.68 1.803s2.074 2.902 2.074 5.101v10.374h-3.707l-.408-2.721a6.24 6.24 0 0 1-2.109 2.244c-.884.59-2.029.885-3.435.885zm.987-3.401c1.247 0 2.21-.408 2.891-1.225.702-.816 1.145-1.825 1.326-3.027h-3.707c-1.157 0-1.984.216-2.483.647-.499.408-.748.918-.748 1.53 0 .658.249 1.168.748 1.53.499.363 1.156.545 1.973.545zm12.827 2.993v-16.87h3.877l.408 3.163a6.968 6.968 0 0 1 2.483-2.584c1.065-.658 2.312-.987 3.741-.987v4.592h-1.225c-.952 0-1.802.147-2.55.442-.749.295-1.338.805-1.769 1.53-.408.726-.612 1.735-.612 3.027v7.687h-4.353z"/><mask id="a" width="52" height="52" x="40" y="25" maskUnits="userSpaceOnUse" style="mask-type:alpha"><circle cx="66.122" cy="51" r="25.59" fill="#C4C4C4"/></mask><g fill="#F1641E" mask="url(#a)"><circle cx="21.231" cy="21.231" r="21.231" transform="rotate(-22 36.649 -63.106)"/><circle cx="21.231" cy="21.231" r="21.231" transform="rotate(-22 203.851 -95.612)"/><circle cx="21.231" cy="21.231" r="21.231" transform="rotate(-22 136.503 4.24)"/><circle cx="21.231" cy="21.231" r="21.231" transform="rotate(-22 100.172 -162.213)"/></g></svg>