<svg xmlns="http://www.w3.org/2000/svg" width="26" height="27" fill="none"><g filter="url(#a)"><path fill="#fff" d="M22.965 4.992a1.875 1.875 0 0 0-1.715-1.117H4.75a1.875 1.875 0 0 0-1.388 3.136l.012.013 6.251 6.671v7.055a1.875 1.875 0 0 0 2.916 1.56l3-2a1.875 1.875 0 0 0 .834-1.56v-5.055l6.25-6.67.012-.014a1.875 1.875 0 0 0 .328-2.02zm-8.333 7.273a1.869 1.869 0 0 0-.507 1.282v5.002l-2.25 1.5v-6.502c0-.476-.18-.935-.507-1.282l-5.753-6.14h14.77l-5.753 6.14z"/></g><defs><filter id="a" width="28" height="28" x="-1" y=".5" color-interpolation-filters="sRGB" filterUnits="userSpaceOnUse"><feFlood flood-opacity="0" result="BackgroundImageFix"/><feColorMatrix in="SourceAlpha" result="hardAlpha" values="0 0 0 0 0 0 0 0 0 0 0 0 0 0 0 0 0 0 127 0"/><feOffset dy="2"/><feGaussianBlur stdDeviation="1"/><feComposite in2="hardAlpha" operator="out"/><feColorMatrix values="0 0 0 0 0.186275 0 0 0 0 0.0176471 0 0 0 0 0.382353 0 0 0 0.4 0"/><feBlend in2="BackgroundImageFix" result="effect1_dropShadow_284_899"/><feBlend in="SourceGraphic" in2="effect1_dropShadow_284_899" result="shape"/></filter></defs></svg>