<svg xmlns="http://www.w3.org/2000/svg" width="260" height="100" fill="none"><rect width="258.972" height="100" x=".327" fill="#EFF7E0" rx="20"/><path fill="#5F8E3E" d="M120.612 62.453c-2.444 0-4.542-.518-6.294-1.556-1.752-1.06-3.1-2.524-4.045-4.391-.946-1.89-1.418-4.07-1.418-6.536 0-2.466.472-4.645 1.418-6.535.945-1.89 2.293-3.366 4.045-4.426 1.752-1.06 3.85-1.59 6.294-1.59 2.904 0 5.279.725 7.123 2.178 1.867 1.429 3.031 3.446 3.492 6.05h-4.875c-.3-1.313-.945-2.339-1.937-3.077-.968-.76-2.259-1.14-3.872-1.14-2.237 0-3.989.76-5.256 2.282-1.268 1.521-1.902 3.607-1.902 6.258s.634 4.738 1.902 6.26c1.267 1.498 3.019 2.247 5.256 2.247 1.613 0 2.904-.346 3.872-1.038.992-.714 1.637-1.694 1.937-2.939h4.875c-.461 2.49-1.625 4.438-3.492 5.844-1.844 1.406-4.219 2.11-7.123 2.11zm22.659 0c-1.659 0-3.158-.38-4.495-1.14a8.586 8.586 0 0 1-3.147-3.148c-.76-1.36-1.141-2.927-1.141-4.702s.392-3.331 1.176-4.668c.784-1.36 1.833-2.42 3.147-3.182 1.337-.76 2.835-1.14 4.495-1.14 1.637 0 3.112.38 4.426 1.14a8.187 8.187 0 0 1 3.147 3.182c.784 1.337 1.175 2.893 1.175 4.668 0 1.775-.391 3.342-1.175 4.703a8.256 8.256 0 0 1-3.147 3.146c-1.337.76-2.824 1.141-4.461 1.141zm0-3.838c1.153 0 2.156-.427 3.009-1.28.853-.875 1.279-2.166 1.279-3.872s-.426-2.986-1.279-3.839c-.853-.876-1.844-1.314-2.974-1.314-1.176 0-2.19.438-3.043 1.314-.83.853-1.245 2.133-1.245 3.839s.415 2.997 1.245 3.873c.853.852 1.856 1.279 3.008 1.279zm20.625 3.838c-1.614 0-3.055-.392-4.323-1.175-1.267-.784-2.27-1.856-3.008-3.216s-1.106-2.905-1.106-4.634c0-1.729.368-3.262 1.106-4.599.738-1.36 1.741-2.42 3.008-3.181 1.268-.784 2.709-1.176 4.323-1.176 1.291 0 2.42.242 3.389.726a6.106 6.106 0 0 1 2.351 2.04V37.143h4.426v24.896h-3.942l-.484-2.455c-.553.761-1.291 1.43-2.213 2.006-.899.576-2.075.864-3.527.864zm.933-3.873c1.43 0 2.594-.472 3.493-1.417.922-.968 1.383-2.202 1.383-3.7 0-1.499-.461-2.72-1.383-3.666-.899-.968-2.063-1.452-3.493-1.452-1.406 0-2.57.473-3.492 1.418-.922.945-1.383 2.167-1.383 3.665 0 1.499.461 2.732 1.383 3.7.922.968 2.086 1.452 3.492 1.452zm16.126-16.355c-.807 0-1.475-.242-2.005-.727-.508-.484-.761-1.094-.761-1.832s.253-1.337.761-1.798c.53-.484 1.198-.727 2.005-.727.807 0 1.464.243 1.971.727.53.46.795 1.06.795 1.798s-.265 1.348-.795 1.833c-.507.484-1.164.726-1.971.726zm-2.213 19.813v-17.15h4.426v17.15h-4.426zm9.841 0v-13.45h-2.351v-3.7h2.351v-2.006c0-2.075.519-3.55 1.556-4.426 1.061-.877 2.49-1.315 4.288-1.315h1.902v3.77h-1.21c-.761 0-1.303.15-1.626.45-.322.299-.484.806-.484 1.52v2.006h3.7v3.7h-3.7v13.451h-4.426zm13.776 7.608 3.976-8.749h-1.037l-6.674-16.01h4.807l4.806 12.068 5.014-12.068h4.703l-10.893 24.759h-4.702z"/><path fill="#95C047" d="M63.407 70.22c-.315 0-.647-.032-.979-.126a4.048 4.048 0 0 1-2.954-4.897l8.088-32.349a4.085 4.085 0 0 1 4.912-2.954 4.062 4.062 0 0 1 2.938 4.913l-8.087 32.349a4.043 4.043 0 0 1-3.918 3.064z"/><path fill="#5F8E3E" d="M82.43 62.133a4.017 4.017 0 0 1-2.86-1.185 4.042 4.042 0 0 1 0-5.718l5.229-5.228-5.229-5.228a4.042 4.042 0 0 1 0-5.718 4.042 4.042 0 0 1 5.718 0l8.088 8.087a4.042 4.042 0 0 1 0 5.718l-8.088 8.087a4.017 4.017 0 0 1-2.859 1.185zm-29.972 0a4.017 4.017 0 0 1-2.859-1.185l-8.087-8.087a4.042 4.042 0 0 1 0-5.718l8.087-8.087a4.042 4.042 0 0 1 5.718 0 4.042 4.042 0 0 1 0 5.718l-5.228 5.228 5.228 5.228a4.042 4.042 0 0 1 0 5.718 4.017 4.017 0 0 1-2.859 1.185z"/></svg>