<svg xmlns="http://www.w3.org/2000/svg" width="338" height="100" fill="none"><rect width="336.583" height="100" x=".549" fill="#ECF3FF" rx="20"/><path fill="#225CD8" d="M96.563 62.38V37.362h4.574l11.759 17.62v-17.62h4.574V62.38h-4.574l-11.759-17.584V62.38h-4.574zm31.761.429c-1.525 0-2.775-.238-3.752-.715-.977-.5-1.704-1.156-2.18-1.966a5.185 5.185 0 0 1-.715-2.68c0-1.644.643-2.978 1.93-4.003 1.286-1.025 3.216-1.537 5.79-1.537h4.503v-.429c0-1.215-.346-2.108-1.037-2.68-.691-.572-1.548-.858-2.573-.858-.929 0-1.739.226-2.43.68-.691.428-1.12 1.071-1.287 1.93h-4.467c.119-1.288.548-2.407 1.286-3.36.763-.953 1.74-1.68 2.931-2.18 1.191-.525 2.526-.787 4.003-.787 2.525 0 4.515.632 5.968 1.894 1.454 1.263 2.18 3.05 2.18 5.361v10.9h-3.895l-.429-2.858a6.553 6.553 0 0 1-2.216 2.358c-.929.62-2.132.93-3.61.93zm1.037-3.574c1.31 0 2.323-.43 3.038-1.287.738-.858 1.203-1.918 1.393-3.18h-3.895c-1.215 0-2.085.226-2.609.678-.524.43-.786.965-.786 1.609 0 .69.262 1.227.786 1.608s1.215.572 2.073.572zm21.133 3.145c-1.858 0-3.348-.453-4.467-1.358-1.12-.906-1.68-2.514-1.68-4.825v-7.72h-3.038v-3.824h3.038l.536-4.753h4.038v4.753h4.79v3.824h-4.79v7.756c0 .857.179 1.453.537 1.787.381.31 1.024.464 1.929.464h2.216v3.896h-3.109zm13.792.429c-2.216 0-3.932-.691-5.147-2.073-1.191-1.382-1.787-3.407-1.787-6.076V44.653h4.539v9.578c0 1.525.31 2.693.929 3.503.62.81 1.597 1.215 2.931 1.215 1.263 0 2.299-.453 3.109-1.358.834-.906 1.251-2.168 1.251-3.789v-9.149h4.575V62.38h-4.039l-.357-3.002a6.195 6.195 0 0 1-2.395 2.502c-1.024.619-2.227.929-3.609.929zm15.096-.43V44.654h4.074l.429 3.324a7.329 7.329 0 0 1 2.609-2.716c1.12-.691 2.43-1.037 3.932-1.037v4.825h-1.287c-1.001 0-1.894.155-2.681.465-.786.31-1.405.845-1.858 1.608-.429.762-.643 1.823-.643 3.18v8.078h-4.575zm22.469.43c-1.787 0-3.371-.381-4.753-1.144a8.274 8.274 0 0 1-3.252-3.216c-.787-1.382-1.18-2.979-1.18-4.79 0-1.834.381-3.466 1.144-4.896.786-1.43 1.858-2.537 3.216-3.324 1.382-.81 3.003-1.215 4.861-1.215 1.739 0 3.276.382 4.61 1.144a8.051 8.051 0 0 1 3.11 3.145c.762 1.31 1.143 2.776 1.143 4.396 0 .262-.012.536-.035.822 0 .286-.012.584-.036.893h-13.474c.095 1.382.572 2.466 1.43 3.253.881.786 1.942 1.18 3.181 1.18.929 0 1.703-.203 2.323-.608a3.955 3.955 0 0 0 1.429-1.645h4.646a8.453 8.453 0 0 1-1.679 3.074c-.763.905-1.716 1.62-2.86 2.145-1.119.524-2.394.786-3.824.786zm.036-14.868c-1.12 0-2.109.322-2.966.965-.858.62-1.406 1.573-1.644 2.86h8.827c-.071-1.168-.5-2.097-1.286-2.788-.787-.691-1.764-1.037-2.931-1.037zm23.218 14.868c-1.334 0-2.501-.25-3.502-.75a6.306 6.306 0 0 1-2.43-2.11l-.501 2.43h-4.074v-25.73h4.575V47.19c.571-.787 1.322-1.478 2.251-2.073.953-.596 2.18-.894 3.681-.894 1.668 0 3.157.405 4.468 1.215 1.31.81 2.347 1.918 3.109 3.324.763 1.406 1.144 3.002 1.144 4.79 0 1.786-.381 3.383-1.144 4.788a8.776 8.776 0 0 1-3.109 3.288c-1.311.787-2.8 1.18-4.468 1.18zm-.965-4.003c1.454 0 2.657-.488 3.61-1.465.953-.977 1.43-2.24 1.43-3.789 0-1.548-.477-2.823-1.43-3.824-.953-1-2.156-1.5-3.61-1.5-1.477 0-2.692.5-3.645 1.5-.929.977-1.394 2.24-1.394 3.788 0 1.55.465 2.824 1.394 3.825.953.977 2.168 1.465 3.645 1.465zm19.884 4.003c-1.525 0-2.776-.238-3.753-.715-.977-.5-1.703-1.156-2.18-1.966a5.195 5.195 0 0 1-.715-2.68c0-1.644.644-2.978 1.93-4.003 1.287-1.025 3.217-1.537 5.79-1.537h4.503v-.429c0-1.215-.345-2.108-1.036-2.68-.691-.572-1.549-.858-2.574-.858-.929 0-1.739.226-2.43.68-.691.428-1.12 1.071-1.286 1.93h-4.468c.119-1.288.548-2.407 1.287-3.36.762-.953 1.739-1.68 2.93-2.18 1.192-.525 2.526-.787 4.003-.787 2.526 0 4.515.632 5.969 1.894 1.453 1.263 2.18 3.05 2.18 5.361v10.9h-3.896l-.429-2.858a6.545 6.545 0 0 1-2.216 2.358c-.929.62-2.132.93-3.609.93zm1.036-3.574c1.311 0 2.323-.43 3.038-1.287.739-.858 1.203-1.918 1.394-3.18h-3.896c-1.215 0-2.084.226-2.609.678-.524.43-.786.965-.786 1.609 0 .69.262 1.227.786 1.608.525.381 1.215.572 2.073.572zm20.806 3.574c-1.573 0-2.955-.25-4.146-.75-1.191-.525-2.144-1.24-2.859-2.145-.715-.906-1.144-1.954-1.287-3.145h4.611c.143.69.524 1.286 1.143 1.787.644.476 1.466.715 2.466.715 1.001 0 1.728-.203 2.181-.608.476-.405.714-.87.714-1.394 0-.762-.333-1.275-1-1.537-.668-.286-1.597-.56-2.788-.822a30.341 30.341 0 0 1-2.323-.607 11.936 11.936 0 0 1-2.18-.894 5.045 5.045 0 0 1-1.573-1.43c-.405-.595-.607-1.322-.607-2.18 0-1.572.619-2.894 1.858-3.966 1.263-1.073 3.026-1.609 5.29-1.609 2.096 0 3.764.489 5.003 1.466 1.263.976 2.013 2.323 2.252 4.038h-4.325c-.262-1.31-1.251-1.965-2.966-1.965-.858 0-1.525.166-2.002.5-.452.333-.679.75-.679 1.25 0 .525.346.942 1.037 1.252.691.31 1.608.595 2.752.857 1.239.286 2.37.608 3.395.965 1.048.334 1.882.846 2.502 1.537.619.667.929 1.632.929 2.895.024 1.096-.262 2.085-.858 2.966-.595.882-1.453 1.573-2.573 2.073-1.12.5-2.442.75-3.967.75zm20.064 0c-1.787 0-3.372-.381-4.754-1.144a8.274 8.274 0 0 1-3.252-3.216c-.786-1.382-1.179-2.979-1.179-4.79 0-1.834.381-3.466 1.143-4.896.787-1.43 1.859-2.537 3.217-3.324 1.382-.81 3.002-1.215 4.86-1.215 1.74 0 3.277.382 4.611 1.144a8.049 8.049 0 0 1 3.109 3.145c.763 1.31 1.144 2.776 1.144 4.396 0 .262-.012.536-.036.822 0 .286-.012.584-.036.893h-13.473c.095 1.382.571 2.466 1.429 3.253.882.786 1.942 1.18 3.181 1.18.929 0 1.704-.203 2.323-.608a3.957 3.957 0 0 0 1.43-1.645h4.646a8.47 8.47 0 0 1-1.68 3.074c-.763.905-1.716 1.62-2.859 2.145-1.12.524-2.395.786-3.824.786zm.035-14.868c-1.119 0-2.108.322-2.966.965-.858.62-1.406 1.573-1.644 2.86h8.828c-.072-1.168-.501-2.097-1.287-2.788-.786-.691-1.763-1.037-2.931-1.037zM42.718 72.62a2.169 2.169 0 0 1-1.535-3.704l11.804-11.804a2.172 2.172 0 0 1 3.07 0c.85.847.85 2.222 0 3.07L44.252 71.984a2.158 2.158 0 0 1-1.534.635z"/><path fill="#0052FF" d="M77.47 32.58 46.604 63.44c-6.447-6.447-6.447-16.904 0-23.355C55.78 30.91 77.47 32.58 77.47 32.58z" opacity=".7"/><path fill="#225CD8" d="M69.96 63.441c-6.447 6.452-16.904 6.452-23.355 0L77.47 32.58s1.67 21.688-7.51 30.862z"/></svg>