<svg xmlns="http://www.w3.org/2000/svg" width="312" height="100" fill="none"><rect width="311.903" height="100" fill="#E5EEF2" rx="20"/><path fill="#1A1A1A" d="M111.557 61.123V41.341h-6.759v-3.413h17.794v3.413h-6.793v19.782h-4.242zm19.086.398c-1.656 0-3.125-.354-4.407-1.06a7.676 7.676 0 0 1-3.015-2.983c-.729-1.281-1.094-2.761-1.094-4.44 0-1.701.354-3.214 1.061-4.54.729-1.325 1.723-2.352 2.982-3.081 1.281-.752 2.783-1.127 4.507-1.127 1.612 0 3.037.353 4.274 1.06a7.467 7.467 0 0 1 2.883 2.916c.707 1.215 1.06 2.574 1.06 4.076 0 .243-.011.497-.033.762 0 .265-.011.541-.033.829h-12.492c.088 1.28.53 2.286 1.325 3.015.818.73 1.801 1.094 2.949 1.094.862 0 1.58-.188 2.154-.564a3.668 3.668 0 0 0 1.326-1.524h4.307a7.838 7.838 0 0 1-1.557 2.85c-.707.84-1.591 1.502-2.651 1.988-1.038.486-2.22.729-3.546.729zm.034-13.785c-1.039 0-1.955.298-2.751.895-.795.574-1.303 1.458-1.524 2.65h8.185c-.067-1.082-.464-1.943-1.193-2.584-.729-.64-1.635-.961-2.717-.961zm19.837 13.785c-1.679 0-3.159-.365-4.44-1.094a8.081 8.081 0 0 1-3.049-3.048c-.729-1.303-1.093-2.795-1.093-4.474 0-1.679.364-3.17 1.093-4.473a8.081 8.081 0 0 1 3.049-3.049c1.281-.729 2.761-1.093 4.44-1.093 2.099 0 3.866.552 5.302 1.657 1.436 1.082 2.353 2.584 2.75 4.506h-4.473c-.221-.795-.663-1.414-1.326-1.855-.64-.464-1.402-.696-2.286-.696-1.171 0-2.165.441-2.982 1.325-.818.884-1.226 2.11-1.226 3.678 0 1.569.408 2.795 1.226 3.679.817.883 1.811 1.325 2.982 1.325.884 0 1.646-.22 2.286-.663.663-.442 1.105-1.071 1.326-1.889h4.473c-.397 1.856-1.314 3.347-2.75 4.474-1.436 1.127-3.203 1.69-5.302 1.69zm11.817-.398V37.265h4.242v9.94a5.844 5.844 0 0 1 2.22-2.12c.95-.53 2.032-.795 3.247-.795 2.032 0 3.601.64 4.706 1.922 1.126 1.281 1.689 3.159 1.689 5.633v9.278h-4.208v-8.88c0-1.414-.287-2.497-.861-3.248-.553-.75-1.436-1.126-2.651-1.126-1.193 0-2.187.42-2.983 1.259-.773.84-1.159 2.01-1.159 3.512v8.483h-4.242zm27.484 0c-1.724 0-3.104-.42-4.142-1.259-1.039-.84-1.558-2.33-1.558-4.473v-7.158h-2.817v-3.546h2.817l.497-4.407h3.745v4.407h4.44v3.546h-4.44v7.19c0 .796.165 1.348.497 1.658.353.287.95.43 1.789.43h2.054v3.612h-2.882zm6.624 0V44.687h3.777l.398 3.082a6.788 6.788 0 0 1 2.419-2.518c1.038-.64 2.253-.961 3.645-.961v4.473h-1.193c-.928 0-1.756.144-2.485.431-.729.287-1.304.784-1.723 1.491-.398.707-.597 1.69-.597 2.95v7.488h-4.241zm15.424-18.987c-.773 0-1.414-.232-1.922-.696-.486-.464-.729-1.05-.729-1.756 0-.707.243-1.281.729-1.723.508-.464 1.149-.696 1.922-.696.773 0 1.403.232 1.889.696.508.442.762 1.016.762 1.723 0 .707-.254 1.292-.762 1.756-.486.464-1.116.696-1.889.696zm-2.121 18.987V44.687h4.242v16.436h-4.242zm16.721.398c-1.679 0-3.159-.365-4.44-1.094a8.088 8.088 0 0 1-3.049-3.048c-.729-1.303-1.093-2.795-1.093-4.474 0-1.679.364-3.17 1.093-4.473a8.088 8.088 0 0 1 3.049-3.049c1.281-.729 2.761-1.093 4.44-1.093 2.099 0 3.866.552 5.302 1.657 1.436 1.082 2.353 2.584 2.751 4.506h-4.474c-.221-.795-.663-1.414-1.325-1.855-.641-.464-1.403-.696-2.287-.696-1.171 0-2.165.441-2.982 1.325-.817.884-1.226 2.11-1.226 3.678 0 1.569.409 2.795 1.226 3.679.817.883 1.811 1.325 2.982 1.325.884 0 1.646-.22 2.287-.663.662-.442 1.104-1.071 1.325-1.889h4.474c-.398 1.856-1.315 3.347-2.751 4.474-1.436 1.127-3.203 1.69-5.302 1.69zm11.817-.398V37.265h4.242v14.083l5.832-6.66h5.037l-6.727 7.488 7.82 8.947h-5.302l-6.66-8.25v8.25h-4.242zm24.818.398c-1.458 0-2.739-.232-3.844-.696-1.105-.486-1.988-1.149-2.651-1.988-.663-.84-1.06-1.812-1.193-2.916h4.275c.132.64.486 1.193 1.06 1.657.597.441 1.359.662 2.287.662.927 0 1.601-.187 2.021-.563.442-.376.663-.806.663-1.292 0-.707-.31-1.182-.928-1.425-.619-.265-1.48-.52-2.585-.762a28.214 28.214 0 0 1-2.154-.564 11.075 11.075 0 0 1-2.021-.828 4.672 4.672 0 0 1-1.458-1.325c-.376-.553-.563-1.227-.563-2.022 0-1.458.574-2.684 1.723-3.678 1.171-.994 2.805-1.491 4.904-1.491 1.944 0 3.49.453 4.639 1.358 1.171.906 1.867 2.154 2.088 3.745h-4.01c-.243-1.215-1.16-1.823-2.75-1.823-.795 0-1.414.155-1.856.464-.42.31-.629.696-.629 1.16 0 .486.32.873.961 1.16.64.287 1.491.552 2.551.795 1.149.265 2.198.563 3.148.895.972.31 1.745.784 2.32 1.425.574.618.861 1.513.861 2.684a4.617 4.617 0 0 1-.795 2.75c-.552.818-1.348 1.458-2.386 1.922-1.038.464-2.264.696-3.678.696z"/><path fill="#1A1A1A" d="M68.395 30.678c0-2.593 3.153-3.87 4.958-2.01L89.987 45.82a6.054 6.054 0 0 1 1.708 4.215v19.851c0 2.593-3.154 3.871-4.959 2.01l-16.633-17.15a6.054 6.054 0 0 1-1.708-4.215V30.678z" opacity=".5"/><path fill="#1A1A1A" d="M53.956 30.114c0-2.593 3.153-3.87 4.958-2.01l16.388 16.898a6.924 6.924 0 0 1 1.953 4.82v19.5c0 2.593-3.153 3.87-4.958 2.01L55.664 54.18a6.054 6.054 0 0 1-1.708-4.215V30.114z" opacity=".7"/><path fill="#1A1A1A" d="M40 30.678c0-2.593 3.153-3.87 4.958-2.01L61.591 45.82a6.053 6.053 0 0 1 1.709 4.215v19.851c0 2.593-3.154 3.871-4.959 2.01l-16.633-17.15A6.054 6.054 0 0 1 40 50.53V30.678z"/></svg>