<svg xmlns="http://www.w3.org/2000/svg" width="24" height="25" fill="none"><mask id="a" width="12" height="18" x="6" y="4" maskUnits="userSpaceOnUse" style="mask-type:luminance"><path fill="#fff" d="M6 4.191h11.692v17.538H6V4.191Z"/></mask><g mask="url(#a)"><path fill="#1ABCFE" d="M11.846 12.96a2.923 2.923 0 1 1 5.846-.108 2.923 2.923 0 0 1-5.846.108Z"/><path fill="#0ACF83" d="M6 18.806a2.923 2.923 0 0 1 2.923-2.923h2.923v2.923a2.923 2.923 0 0 1-5.846 0Z"/><path fill="#FF7262" d="M11.846 4.191v5.847h2.923a2.923 2.923 0 1 0 0-5.847h-2.923Z"/><path fill="#F24E1E" d="M6 7.114a2.923 2.923 0 0 0 2.923 2.924h2.923V4.19H8.923A2.923 2.923 0 0 0 6 7.114Z"/><path fill="#A259FF" d="M6 12.96a2.923 2.923 0 0 0 2.923 2.923h2.923v-5.846H8.923A2.923 2.923 0 0 0 6 12.96Z"/></g></svg>