<?xml version="1.0" standalone="no"?>
<!DOCTYPE svg PUBLIC "-//W3C//DTD SVG 20010904//EN"
 "http://www.w3.org/TR/2001/REC-SVG-20010904/DTD/svg10.dtd">
<svg version="1.0" xmlns="http://www.w3.org/2000/svg"
 width="500.000000pt" height="500.000000pt" viewBox="0 0 500.000000 500.000000"
 preserveAspectRatio="xMidYMid meet">

<g transform="translate(0.000000,500.000000) scale(0.100000,-0.100000)"
fill="#000000" stroke="none">
<path d="M1315 3390 c-74 -12 -114 -24 -185 -55 -236 -104 -405 -307 -468
-560 -18 -75 -20 -261 -3 -335 69 -300 286 -530 576 -611 99 -28 305 -31 395
-6 202 55 369 174 480 344 223 339 154 791 -159 1050 -69 57 -185 120 -261
142 -25 7 -58 18 -75 23 -42 13 -240 18 -300 8z m95 -179 l0 -119 -51 -7 c-76
-11 -209 -21 -209 -17 0 30 73 137 129 189 31 30 105 73 124 73 4 0 7 -54 7
-119z m210 29 c57 -57 110 -134 110 -161 0 -13 -97 -11 -180 2 -63 11 -69 14
-74 38 -6 35 -7 191 -1 201 13 21 84 -18 145 -80z m-456 -7 c-20 -26 -51 -76
-67 -110 l-31 -63 -94 0 -93 0 17 23 c35 45 143 127 219 166 43 23 80 39 83
37 2 -2 -13 -26 -34 -53z m586 28 c72 -35 172 -106 218 -154 l34 -35 -29 -3
c-15 -2 -59 -2 -96 -1 l-68 4 -20 45 c-11 26 -40 75 -64 110 -24 34 -42 63
-40 63 3 0 32 -13 65 -29z m-176 -256 c177 -54 309 -247 293 -428 -11 -131
-78 -250 -177 -318 -286 -196 -670 -2 -670 340 0 185 111 343 283 402 66 22
204 24 271 4z m-439 -25 c-20 -23 -29 -21 -19 4 3 9 13 16 22 16 13 0 12 -3
-3 -20z m635 4 c0 -14 -3 -15 -17 -3 -10 7 -20 15 -22 16 -2 2 5 3 17 3 14 0
22 -6 22 -16z m318 -41 c41 -78 69 -167 77 -247 l7 -66 -121 0 -121 0 0 26 c0
15 -15 72 -34 128 -32 97 -56 185 -56 206 0 6 44 10 109 10 l108 0 31 -57z
m-1043 30 c-3 -10 -11 -40 -17 -68 -6 -27 -21 -75 -33 -105 -13 -30 -28 -81
-35 -112 l-13 -58 -118 0 -117 0 5 43 c10 85 34 170 67 243 l35 74 116 0 c107
0 117 -1 110 -17z m-84 -460 c7 -32 21 -78 31 -103 11 -24 27 -80 37 -122 l18
-78 -112 0 -112 0 -31 63 c-48 96 -92 262 -77 287 4 6 56 10 120 10 l114 0 12
-57z m1204 -5 c-9 -74 -36 -161 -76 -240 l-29 -58 -110 0 c-61 0 -110 2 -110
4 0 19 34 147 50 187 11 28 25 71 30 97 6 26 13 53 15 60 3 9 37 12 121 12
l116 0 -7 -62z m-1022 -306 c-9 -2 -19 2 -24 10 -16 24 -9 29 15 11 19 -14 21
-19 9 -21z m622 18 c-3 -5 -11 -10 -16 -10 -6 0 -7 5 -4 10 3 6 11 10 16 10 6
0 7 -4 4 -10z m-685 -90 c0 -21 52 -121 86 -165 19 -26 34 -49 32 -51 -6 -6
-105 43 -156 77 -50 34 -152 128 -152 141 0 4 43 8 95 8 55 0 95 -4 95 -10z
m280 -7 l45 -8 3 -117 3 -118 -26 0 c-34 0 -105 49 -148 103 -34 41 -87 134
-87 150 0 10 138 3 210 -10z m370 7 c0 -29 -62 -122 -117 -177 -66 -67 -123
-93 -134 -64 -5 13 -5 166 0 219 1 7 16 12 39 13 20 0 46 4 57 9 29 12 155 12
155 0z m259 -7 c-49 -66 -258 -213 -303 -213 -3 0 10 22 29 48 19 27 49 79 66
115 l31 67 95 0 c89 0 95 -1 82 -17z"/>
<path d="M1416 2868 c-10 -104 -18 -148 -25 -148 -4 0 -38 27 -77 60 -72 62
-114 77 -114 40 0 -10 29 -52 65 -92 76 -84 79 -80 -64 -93 -50 -4 -85 -12
-92 -21 -22 -27 8 -38 112 -45 55 -4 103 -10 106 -13 3 -3 -24 -39 -61 -81
-66 -73 -79 -106 -46 -112 8 -2 50 27 93 63 43 36 80 64 82 62 3 -2 10 -51 16
-109 7 -57 17 -107 22 -111 26 -16 35 6 42 100 9 117 14 129 41 105 83 -75
136 -114 151 -111 35 7 23 37 -46 109 -38 41 -66 77 -62 82 4 4 51 10 104 14
98 6 125 17 114 47 -4 9 -31 16 -89 20 -154 13 -149 6 -67 97 46 51 69 84 65
94 -7 20 -38 19 -62 -2 -64 -59 -126 -105 -132 -99 -3 4 -11 53 -17 109 -9 92
-12 102 -31 105 -20 3 -22 -3 -28 -70z"/>
<path d="M2577 3276 c-94 -29 -147 -106 -147 -211 0 -143 76 -225 210 -225
125 0 188 64 190 193 l0 47 -95 0 -95 0 0 -35 0 -35 50 0 c44 0 50 -3 50 -20
0 -12 -11 -32 -25 -45 -34 -35 -111 -35 -153 0 -82 69 -56 222 44 255 43 15
98 -2 121 -36 12 -19 24 -24 54 -24 35 0 39 3 39 25 0 38 -67 99 -123 113 -54
14 -69 14 -120 -2z"/>
<path d="M3230 3200 c0 -33 -3 -40 -20 -40 -16 0 -20 -7 -20 -30 0 -23 4 -30
20 -30 18 0 20 -7 20 -89 0 -139 21 -171 110 -171 44 0 55 10 46 45 -4 16 -11
22 -24 18 -39 -10 -53 23 -50 111 l3 81 38 3 c34 3 37 6 37 33 0 27 -2 29 -40
29 l-40 0 0 40 0 40 -40 0 -40 0 0 -40z"/>
<path d="M2955 3155 c-108 -48 -125 -200 -32 -280 37 -32 46 -35 103 -35 60 0
65 2 106 41 40 38 41 42 23 50 -34 13 -61 10 -80 -11 -25 -28 -70 -26 -100 5
-48 48 -37 55 86 55 l112 0 -5 51 c-3 28 -14 62 -25 77 -40 55 -123 76 -188
47z m107 -57 c9 -7 19 -23 23 -35 6 -22 4 -23 -64 -23 -39 0 -71 4 -71 9 0 4
9 20 21 35 22 28 64 35 91 14z"/>
<path d="M3833 2764 c-7 -3 -13 -16 -13 -29 0 -44 50 -60 74 -22 20 32 -22 67
-61 51z"/>
<path d="M2413 2743 c8 -32 69 -257 87 -323 l17 -65 42 -3 c27 -2 43 1 45 10
3 7 20 70 38 140 18 71 36 128 39 128 3 0 16 -42 29 -92 49 -196 46 -188 90
-188 43 0 41 -2 76 125 17 65 22 83 53 195 11 41 21 78 21 83 0 4 -20 7 -44 7
-42 0 -44 -1 -48 -32 -8 -51 -50 -231 -58 -246 -3 -8 -19 36 -34 100 -44 180
-43 179 -90 176 l-39 -3 -33 -135 c-19 -74 -36 -139 -38 -145 -5 -12 -10 4
-25 75 -18 82 -32 141 -43 178 -9 29 -13 32 -50 32 -34 0 -40 -3 -35 -17z"/>
<path d="M3248 2753 c-4 -7 -4 -69 0 -310 l2 -93 35 0 c29 0 35 4 35 21 l0 20
26 -20 c50 -39 123 -24 163 34 53 78 31 193 -46 233 -41 22 -114 10 -135 -22
-4 -6 -8 24 -8 67 l0 77 -34 0 c-19 0 -36 -3 -38 -7z m182 -176 c9 -7 22 -26
29 -43 10 -26 10 -37 -2 -67 -25 -60 -72 -73 -112 -32 -68 67 13 200 85 142z"/>
<path d="M3970 2685 c0 -28 -4 -35 -20 -35 -16 0 -20 -7 -20 -30 0 -23 5 -30
19 -30 17 0 19 -10 23 -101 3 -93 5 -102 28 -119 23 -18 99 -28 112 -15 3 3 3
17 0 30 -3 18 -11 25 -28 25 -33 0 -45 30 -42 108 l3 67 33 3 c28 3 32 7 32
33 0 27 -3 29 -35 29 -33 0 -35 2 -35 35 0 33 -2 35 -35 35 -33 0 -35 -2 -35
-35z"/>
<path d="M3005 2638 c-58 -33 -82 -93 -71 -172 6 -35 16 -53 47 -80 34 -31 46
-36 90 -36 57 0 99 18 122 54 16 24 16 25 -15 35 -27 10 -35 8 -53 -9 -29 -27
-79 -26 -99 2 -31 44 -23 48 84 48 l100 0 0 30 c0 44 -35 107 -70 125 -34 18
-106 19 -135 3z m111 -63 c14 -14 22 -30 19 -35 -3 -6 -33 -10 -66 -10 -65 0
-76 13 -39 50 27 27 56 25 86 -5z"/>
<path d="M3603 2632 c-30 -23 -42 -60 -31 -99 7 -28 15 -34 66 -49 66 -20 87
-36 79 -58 -9 -23 -74 -21 -88 3 -10 15 -16 16 -41 7 -36 -13 -35 -28 3 -60
24 -20 41 -26 79 -26 27 0 60 5 74 11 25 12 56 63 56 92 0 26 -40 65 -73 72
-58 11 -88 27 -85 44 4 19 55 28 71 12 14 -14 64 -14 72 -1 4 6 -7 24 -24 40
-25 26 -37 30 -83 30 -35 0 -61 -6 -75 -18z"/>
<path d="M3820 2499 l0 -150 38 3 37 3 3 148 3 147 -41 0 -40 0 0 -151z"/>
<path d="M4193 2627 c-40 -27 -63 -75 -63 -130 0 -83 66 -147 152 -147 39 0
54 6 83 31 19 17 35 34 35 38 0 4 -12 13 -26 20 -23 10 -30 9 -49 -9 -29 -27
-79 -26 -99 2 -31 44 -23 48 84 48 l100 0 0 31 c0 45 -29 98 -64 120 -42 26
-112 24 -153 -4z m115 -43 c12 -8 22 -24 22 -35 0 -17 -7 -19 -60 -19 -66 0
-75 10 -40 48 24 26 47 28 78 6z"/>
<path d="M3240 2204 l0 -76 -35 22 c-29 18 -44 21 -79 16 -70 -11 -106 -62
-106 -153 0 -71 25 -118 75 -139 45 -19 63 -18 108 5 29 15 37 16 37 5 0 -9
12 -14 35 -14 l35 0 0 205 0 205 -35 0 -35 0 0 -76z m-24 -125 c12 -14 19 -36
19 -64 0 -54 -26 -85 -70 -85 -42 0 -67 29 -69 78 -1 55 26 92 68 92 21 0 40
-8 52 -21z"/>
<path d="M2510 2200 c0 -33 -3 -40 -20 -40 -16 0 -20 -7 -20 -30 0 -23 4 -30
20 -30 18 0 20 -7 20 -79 0 -64 4 -84 23 -111 24 -37 64 -52 109 -43 24 5 29
10 26 32 -2 19 -10 27 -28 29 -38 5 -50 29 -50 104 l0 68 40 0 c38 0 40 2 40
30 0 28 -2 30 -40 30 l-40 0 0 40 0 40 -40 0 -40 0 0 -40z"/>
<path d="M2785 2163 c-64 -18 -98 -71 -97 -152 0 -58 16 -88 66 -125 36 -28
119 -28 166 -1 88 52 93 196 9 256 -29 20 -107 32 -144 22z m103 -76 c17 -20
25 -65 18 -102 -5 -25 -15 -39 -37 -50 -36 -19 -62 -13 -89 22 -45 58 -10 143
60 143 20 0 42 -6 48 -13z"/>
<path d="M3443 2163 c-26 -5 -73 -50 -73 -70 0 -7 12 -18 27 -24 24 -9 30 -7
46 15 29 41 97 28 97 -18 0 -21 -5 -23 -57 -25 -84 -3 -132 -37 -133 -92 0
-67 77 -105 153 -75 26 10 43 12 45 6 2 -5 19 -10 38 -10 l34 0 0 95 c0 117
-17 167 -65 189 -32 15 -65 18 -112 9z m97 -181 c0 -10 -7 -28 -16 -40 -22
-32 -87 -28 -92 6 -3 17 4 26 30 37 47 20 78 19 78 -3z"/>
<path d="M3661 2078 c17 -46 42 -114 55 -151 24 -64 24 -70 9 -93 -9 -15 -25
-24 -40 -24 -21 0 -25 -5 -25 -30 0 -28 2 -30 39 -30 45 0 82 30 104 83 22 51
117 313 117 320 0 4 -17 7 -37 7 l-38 0 -28 -90 c-16 -50 -32 -90 -37 -90 -4
0 -21 39 -37 88 l-30 87 -41 3 -41 3 30 -83z"/>
<path d="M2399 1939 c-30 -30 -11 -78 32 -79 39 0 55 71 20 90 -26 13 -28 13
-52 -11z"/>
</g>
</svg>
