<svg xmlns="http://www.w3.org/2000/svg" width="27" height="28" fill="none"><g filter="url(#a)"><path fill="#fff" d="m19.656 12.248-4.677-1.723-1.727-4.681a1.867 1.867 0 0 0-3.504 0l-1.723 4.68-4.681 1.724a1.867 1.867 0 0 0 0 3.504l4.677 1.723 1.727 4.681a1.867 1.867 0 0 0 3.504 0l1.723-4.677 4.681-1.727a1.867 1.867 0 0 0 0-3.504zm-5.625 3.178a1.865 1.865 0 0 0-1.106 1.106l-1.425 3.87-1.426-3.87a1.865 1.865 0 0 0-1.105-1.106L5.099 14l3.87-1.426a1.864 1.864 0 0 0 1.105-1.105l1.426-3.87 1.426 3.87a1.865 1.865 0 0 0 1.106 1.106L17.902 14l-3.87 1.426zm.094-11.176a1.125 1.125 0 0 1 1.125-1.125h1.125V2a1.125 1.125 0 1 1 2.25 0v1.125h1.125a1.125 1.125 0 0 1 0 2.25h-1.125V6.5a1.125 1.125 0 1 1-2.25 0V5.375H15.25a1.125 1.125 0 0 1-1.125-1.125zm10.5 4.5A1.125 1.125 0 0 1 23.5 9.875h-.375v.375a1.125 1.125 0 1 1-2.25 0v-.375H20.5a1.125 1.125 0 0 1 0-2.25h.375V7.25a1.125 1.125 0 1 1 2.25 0v.375h.375a1.125 1.125 0 0 1 1.125 1.125z"/></g><defs><filter id="a" width="28" height="28" x="-1" y=".5" color-interpolation-filters="sRGB" filterUnits="userSpaceOnUse"><feFlood flood-opacity="0" result="BackgroundImageFix"/><feColorMatrix in="SourceAlpha" result="hardAlpha" values="0 0 0 0 0 0 0 0 0 0 0 0 0 0 0 0 0 0 127 0"/><feOffset dy="2"/><feGaussianBlur stdDeviation="1"/><feComposite in2="hardAlpha" operator="out"/><feColorMatrix values="0 0 0 0 0.186275 0 0 0 0 0.0176471 0 0 0 0 0.382353 0 0 0 0.4 0"/><feBlend in2="BackgroundImageFix" result="effect1_dropShadow_284_910"/><feBlend in="SourceGraphic" in2="effect1_dropShadow_284_910" result="shape"/></filter></defs></svg>