<svg xmlns="http://www.w3.org/2000/svg" width="78" height="90" fill="none"><g filter="url(#a)"><path fill="#1C17FF" d="m55.774 36.832-3.39-6.782a2.124 2.124 0 0 0-2.85-.95l-3.304 1.652-6.958-1.841a1.082 1.082 0 0 0-.544 0l-6.958 1.84-3.303-1.65a2.124 2.124 0 0 0-2.852.95l-3.39 6.78a2.124 2.124 0 0 0 .95 2.85l3.586 1.795 7.37 5.264c.109.077.23.133.36.166l8.5 2.125a1.063 1.063 0 0 0 1.01-.28l5.312-5.312 2.003-2.003 3.508-1.754a2.125 2.125 0 0 0 .95-2.85Zm-7.29 4.432-4.57-3.66a1.062 1.062 0 0 0-1.419.08c-2.365 2.383-5.001 2.082-6.683 1.02l5.743-5.579h4.225l3.614 7.226-.91.913Zm-5.56 5.56-7.72-1.93-6.534-4.668 3.718-7.437L39 31.037l1.301.344-5.976 5.801-.01.012a2.124 2.124 0 0 0 .36 3.295c2.731 1.744 6.026 1.461 8.621-.664l3.673 2.95-4.046 4.048Zm-3.417 4.621a1.062 1.062 0 0 1-1.288.773l-5.54-1.385a1.048 1.048 0 0 1-.36-.166l-3.5-2.5a1.062 1.062 0 0 1 1.236-1.726l3.335 2.382 5.344 1.334a1.063 1.063 0 0 1 .773 1.288Z"/></g><defs><filter id="a" width="77.8" height="77.8" x=".1" y="15.6" color-interpolation-filters="sRGB" filterUnits="userSpaceOnUse"><feFlood flood-opacity="0" result="BackgroundImageFix"/><feColorMatrix in="SourceAlpha" result="hardAlpha" values="0 0 0 0 0 0 0 0 0 0 0 0 0 0 0 0 0 0 127 0"/><feOffset dy="1"/><feGaussianBlur stdDeviation=".5"/><feComposite in2="hardAlpha" operator="out"/><feColorMatrix values="0 0 0 0 0.0698415 0 0 0 0 0.0548944 0 0 0 0 0.748439 0 0 0 0.25 0"/><feBlend in2="BackgroundImageFix" result="effect1_dropShadow_592_1257"/><feColorMatrix in="SourceAlpha" result="hardAlpha" values="0 0 0 0 0 0 0 0 0 0 0 0 0 0 0 0 0 0 127 0"/><feOffset dy="3"/><feGaussianBlur stdDeviation="2.4"/><feComposite in2="hardAlpha" operator="out"/><feColorMatrix values="0 0 0 0 0.0698415 0 0 0 0 0.0548944 0 0 0 0 0.748439 0 0 0 0.05 0"/><feBlend in2="effect1_dropShadow_592_1257" result="effect2_dropShadow_592_1257"/><feColorMatrix in="SourceAlpha" result="hardAlpha" values="0 0 0 0 0 0 0 0 0 0 0 0 0 0 0 0 0 0 127 0"/><feOffset dy="14"/><feGaussianBlur stdDeviation="6.75"/><feComposite in2="hardAlpha" operator="out"/><feColorMatrix values="0 0 0 0 0.0698415 0 0 0 0 0.0548944 0 0 0 0 0.748439 0 0 0 0.05 0"/><feBlend in2="effect2_dropShadow_592_1257" result="effect3_dropShadow_592_1257"/><feColorMatrix in="SourceAlpha" result="hardAlpha" values="0 0 0 0 0 0 0 0 0 0 0 0 0 0 0 0 0 0 127 0"/><feOffset dy="6"/><feGaussianBlur stdDeviation="4.45"/><feComposite in2="hardAlpha" operator="out"/><feColorMatrix values="0 0 0 0 0.376542 0 0 0 0 0.3649 0 0 0 0 0.9051 0 0 0 0.25 0"/><feBlend in2="effect3_dropShadow_592_1257" result="effect4_dropShadow_592_1257"/><feColorMatrix in="SourceAlpha" result="hardAlpha" values="0 0 0 0 0 0 0 0 0 0 0 0 0 0 0 0 0 0 127 0"/><feOffset dy="15"/><feGaussianBlur stdDeviation="10.95"/><feComposite in2="hardAlpha" operator="out"/><feColorMatrix values="0 0 0 0 0.3649 0 0 0 0 0.68902 0 0 0 0 0.9051 0 0 0 0.15 0"/><feBlend in2="effect4_dropShadow_592_1257" result="effect5_dropShadow_592_1257"/><feBlend in="SourceGraphic" in2="effect5_dropShadow_592_1257" result="shape"/></filter></defs></svg>