<svg xmlns="http://www.w3.org/2000/svg" width="79" height="89" fill="none"><g filter="url(#a)"><path fill="#19D513" d="M52.75 32.063h-2.125V31a3.187 3.187 0 0 0-3.188-3.188H28.314A3.187 3.187 0 0 0 25.125 31v12.75a3.187 3.187 0 0 0 3.188 3.188h14.875V48a3.187 3.187 0 0 0 3.187 3.188h6.375A3.187 3.187 0 0 0 55.938 48V35.25a3.187 3.187 0 0 0-3.188-3.188ZM53.813 48a1.062 1.062 0 0 1-1.063 1.063h-6.375A1.062 1.062 0 0 1 45.312 48V35.25a1.062 1.062 0 0 1 1.063-1.063h6.375a1.062 1.062 0 0 1 1.063 1.063V48Zm-12.75 2.125A1.062 1.062 0 0 1 40 51.188h-5.313a1.062 1.062 0 1 1 0-2.126H40a1.062 1.062 0 0 1 1.063 1.063Zm10.624-12.75a1.062 1.062 0 0 1-1.062 1.063H48.5a1.062 1.062 0 1 1 0-2.126h2.125a1.062 1.062 0 0 1 1.063 1.063Z"/></g><defs><filter id="a" width="77.8" height="77.8" x="1.1" y="15.6" color-interpolation-filters="sRGB" filterUnits="userSpaceOnUse"><feFlood flood-opacity="0" result="BackgroundImageFix"/><feColorMatrix in="SourceAlpha" result="hardAlpha" values="0 0 0 0 0 0 0 0 0 0 0 0 0 0 0 0 0 0 127 0"/><feOffset dy="1"/><feGaussianBlur stdDeviation=".5"/><feComposite in2="hardAlpha" operator="out"/><feColorMatrix values="0 0 0 0 0.108696 0 0 0 0 0.713044 0 0 0 0 0.0869565 0 0 0 0.25 0"/><feBlend in2="BackgroundImageFix" result="effect1_dropShadow_592_1233"/><feColorMatrix in="SourceAlpha" result="hardAlpha" values="0 0 0 0 0 0 0 0 0 0 0 0 0 0 0 0 0 0 127 0"/><feOffset dy="3"/><feGaussianBlur stdDeviation="2.4"/><feComposite in2="hardAlpha" operator="out"/><feColorMatrix values="0 0 0 0 0.108696 0 0 0 0 0.713044 0 0 0 0 0.0869565 0 0 0 0.05 0"/><feBlend in2="effect1_dropShadow_592_1233" result="effect2_dropShadow_592_1233"/><feColorMatrix in="SourceAlpha" result="hardAlpha" values="0 0 0 0 0 0 0 0 0 0 0 0 0 0 0 0 0 0 127 0"/><feOffset dy="14"/><feGaussianBlur stdDeviation="6.75"/><feComposite in2="hardAlpha" operator="out"/><feColorMatrix values="0 0 0 0 0.108696 0 0 0 0 0.713044 0 0 0 0 0.0869565 0 0 0 0.05 0"/><feBlend in2="effect2_dropShadow_592_1233" result="effect3_dropShadow_592_1233"/><feColorMatrix in="SourceAlpha" result="hardAlpha" values="0 0 0 0 0 0 0 0 0 0 0 0 0 0 0 0 0 0 127 0"/><feOffset dy="6"/><feGaussianBlur stdDeviation="4.45"/><feComposite in2="hardAlpha" operator="out"/><feColorMatrix values="0 0 0 0 0.360543 0 0 0 0 0.919565 0 0 0 0 0.340435 0 0 0 0.25 0"/><feBlend in2="effect3_dropShadow_592_1233" result="effect4_dropShadow_592_1233"/><feColorMatrix in="SourceAlpha" result="hardAlpha" values="0 0 0 0 0 0 0 0 0 0 0 0 0 0 0 0 0 0 127 0"/><feOffset dy="15"/><feGaussianBlur stdDeviation="10.95"/><feComposite in2="hardAlpha" operator="out"/><feColorMatrix values="0 0 0 0 0.360543 0 0 0 0 0.919565 0 0 0 0 0.340435 0 0 0 0.15 0"/><feBlend in2="effect4_dropShadow_592_1233" result="effect5_dropShadow_592_1233"/><feBlend in="SourceGraphic" in2="effect5_dropShadow_592_1233" result="shape"/></filter></defs></svg>