<svg xmlns="http://www.w3.org/2000/svg" width="78" height="89" fill="none"><g filter="url(#a)"><path fill="#19D513" d="m53.778 49.313-1.894-15.938a2.124 2.124 0 0 0-2.125-1.875h-4.467a6.375 6.375 0 1 0-12.75 0H28.07a2.125 2.125 0 0 0-2.125 1.875l-1.894 15.938a2.126 2.126 0 0 0 2.116 2.374h25.49a2.142 2.142 0 0 0 1.604-.717 2.124 2.124 0 0 0 .517-1.657Zm-19.11-12.5a1.062 1.062 0 1 1-2.126 0v-2.126a1.063 1.063 0 0 1 2.125 0v2.126Zm4.25-9.563a4.25 4.25 0 0 1 4.25 4.25h-8.5a4.25 4.25 0 0 1 4.25-4.25Zm6.374 9.563a1.062 1.062 0 1 1-2.125 0v-2.126a1.063 1.063 0 0 1 2.125 0v2.126Z"/></g><defs><filter id="a" width="77.8" height="77.8" x=".017" y="16.1" color-interpolation-filters="sRGB" filterUnits="userSpaceOnUse"><feFlood flood-opacity="0" result="BackgroundImageFix"/><feColorMatrix in="SourceAlpha" result="hardAlpha" values="0 0 0 0 0 0 0 0 0 0 0 0 0 0 0 0 0 0 127 0"/><feOffset dy="1"/><feGaussianBlur stdDeviation=".5"/><feComposite in2="hardAlpha" operator="out"/><feColorMatrix values="0 0 0 0 0.108696 0 0 0 0 0.713044 0 0 0 0 0.0869565 0 0 0 0.25 0"/><feBlend in2="BackgroundImageFix" result="effect1_dropShadow_592_1270"/><feColorMatrix in="SourceAlpha" result="hardAlpha" values="0 0 0 0 0 0 0 0 0 0 0 0 0 0 0 0 0 0 127 0"/><feOffset dy="3"/><feGaussianBlur stdDeviation="2.4"/><feComposite in2="hardAlpha" operator="out"/><feColorMatrix values="0 0 0 0 0.108696 0 0 0 0 0.713044 0 0 0 0 0.0869565 0 0 0 0.05 0"/><feBlend in2="effect1_dropShadow_592_1270" result="effect2_dropShadow_592_1270"/><feColorMatrix in="SourceAlpha" result="hardAlpha" values="0 0 0 0 0 0 0 0 0 0 0 0 0 0 0 0 0 0 127 0"/><feOffset dy="14"/><feGaussianBlur stdDeviation="6.75"/><feComposite in2="hardAlpha" operator="out"/><feColorMatrix values="0 0 0 0 0.108696 0 0 0 0 0.713044 0 0 0 0 0.0869565 0 0 0 0.05 0"/><feBlend in2="effect2_dropShadow_592_1270" result="effect3_dropShadow_592_1270"/><feColorMatrix in="SourceAlpha" result="hardAlpha" values="0 0 0 0 0 0 0 0 0 0 0 0 0 0 0 0 0 0 127 0"/><feOffset dy="6"/><feGaussianBlur stdDeviation="4.45"/><feComposite in2="hardAlpha" operator="out"/><feColorMatrix values="0 0 0 0 0.360543 0 0 0 0 0.919565 0 0 0 0 0.340435 0 0 0 0.25 0"/><feBlend in2="effect3_dropShadow_592_1270" result="effect4_dropShadow_592_1270"/><feColorMatrix in="SourceAlpha" result="hardAlpha" values="0 0 0 0 0 0 0 0 0 0 0 0 0 0 0 0 0 0 127 0"/><feOffset dy="15"/><feGaussianBlur stdDeviation="10.95"/><feComposite in2="hardAlpha" operator="out"/><feColorMatrix values="0 0 0 0 0.360543 0 0 0 0 0.919565 0 0 0 0 0.340435 0 0 0 0.15 0"/><feBlend in2="effect4_dropShadow_592_1270" result="effect5_dropShadow_592_1270"/><feBlend in="SourceGraphic" in2="effect5_dropShadow_592_1270" result="shape"/></filter></defs></svg>