<svg xmlns="http://www.w3.org/2000/svg" width="22" height="23" fill="none"><g clip-path="url(#a)"><path fill="#1C17FF" d="M17.24 4.096a2.15 2.15 0 0 0 1.162 1.164l1.846.765a2.149 2.149 0 0 1 1.163 2.808l-.764 1.844a2.146 2.146 0 0 0 0 1.646l.763 1.843a2.15 2.15 0 0 1-1.163 2.81l-1.845.764a2.15 2.15 0 0 0-1.163 1.162l-.765 1.845a2.15 2.15 0 0 1-2.808 1.163l-1.844-.763a2.15 2.15 0 0 0-1.645 0l-1.845.764a2.15 2.15 0 0 1-2.807-1.163l-.764-1.845a2.15 2.15 0 0 0-1.162-1.164l-1.846-.765A2.15 2.15 0 0 1 .59 14.167l.764-1.844a2.15 2.15 0 0 0-.001-1.644L.589 8.832a2.15 2.15 0 0 1 1.164-2.81l1.844-.763a2.15 2.15 0 0 0 1.163-1.16l.765-1.846a2.15 2.15 0 0 1 2.808-1.164l1.844.764a2.15 2.15 0 0 0 1.645-.001l1.846-.761a2.15 2.15 0 0 1 2.808 1.163L17.24 4.1v-.004Z"/><path fill="#fff" fill-rule="evenodd" d="M15.307 8.615a1.032 1.032 0 0 0-1.741-1.108l-4.038 6.346-1.848-2.31a1.032 1.032 0 0 0-1.612 1.288l2.75 3.438a1.033 1.033 0 0 0 1.676-.091l4.813-7.563Z" clip-rule="evenodd"/></g><defs><clipPath id="a"><path fill="#fff" d="M0 .5h22v22H0z"/></clipPath></defs></svg>