<svg xmlns="http://www.w3.org/2000/svg" width="79" height="88" fill="none"><g filter="url(#a)"><path fill="#FF5117" d="M54.842 35.06c0 .015 0 .029-.01.043L51.82 48.898a2.125 2.125 0 0 1-2.087 1.727H30.266a2.125 2.125 0 0 1-2.086-1.727l-3.012-13.795c0-.014-.007-.028-.01-.042a2.125 2.125 0 0 1 3.686-1.783l4.472 4.82 4.754-10.663v-.014a2.126 2.126 0 0 1 3.86 0v.014l4.755 10.663 4.471-4.82a2.125 2.125 0 0 1 3.68 1.783h.006Z"/></g><defs><filter id="a" width="77.8" height="77.8" x="1.1" y="16.1" color-interpolation-filters="sRGB" filterUnits="userSpaceOnUse"><feFlood flood-opacity="0" result="BackgroundImageFix"/><feColorMatrix in="SourceAlpha" result="hardAlpha" values="0 0 0 0 0 0 0 0 0 0 0 0 0 0 0 0 0 0 127 0"/><feOffset dy="1"/><feGaussianBlur stdDeviation=".5"/><feComposite in2="hardAlpha" operator="out"/><feColorMatrix values="0 0 0 0 0.8 0 0 0 0 0.2 0 0 0 0 0 0 0 0 0.25 0"/><feBlend in2="BackgroundImageFix" result="effect1_dropShadow_592_1230"/><feColorMatrix in="SourceAlpha" result="hardAlpha" values="0 0 0 0 0 0 0 0 0 0 0 0 0 0 0 0 0 0 127 0"/><feOffset dy="3"/><feGaussianBlur stdDeviation="2.4"/><feComposite in2="hardAlpha" operator="out"/><feColorMatrix values="0 0 0 0 0.8 0 0 0 0 0.2 0 0 0 0 0 0 0 0 0.05 0"/><feBlend in2="effect1_dropShadow_592_1230" result="effect2_dropShadow_592_1230"/><feColorMatrix in="SourceAlpha" result="hardAlpha" values="0 0 0 0 0 0 0 0 0 0 0 0 0 0 0 0 0 0 127 0"/><feOffset dy="14"/><feGaussianBlur stdDeviation="6.75"/><feComposite in2="hardAlpha" operator="out"/><feColorMatrix values="0 0 0 0 0.8 0 0 0 0 0.2 0 0 0 0 0 0 0 0 0.05 0"/><feBlend in2="effect2_dropShadow_592_1230" result="effect3_dropShadow_592_1230"/><feColorMatrix in="SourceAlpha" result="hardAlpha" values="0 0 0 0 0 0 0 0 0 0 0 0 0 0 0 0 0 0 127 0"/><feOffset dy="6"/><feGaussianBlur stdDeviation="4.45"/><feComposite in2="hardAlpha" operator="out"/><feColorMatrix values="0 0 0 0 1 0 0 0 0 0.445 0 0 0 0 0.26 0 0 0 0.25 0"/><feBlend in2="effect3_dropShadow_592_1230" result="effect4_dropShadow_592_1230"/><feColorMatrix in="SourceAlpha" result="hardAlpha" values="0 0 0 0 0 0 0 0 0 0 0 0 0 0 0 0 0 0 127 0"/><feOffset dy="15"/><feGaussianBlur stdDeviation="10.95"/><feComposite in2="hardAlpha" operator="out"/><feColorMatrix values="0 0 0 0 1 0 0 0 0 0.445 0 0 0 0 0.26 0 0 0 0.15 0"/><feBlend in2="effect4_dropShadow_592_1230" result="effect5_dropShadow_592_1230"/><feBlend in="SourceGraphic" in2="effect5_dropShadow_592_1230" result="shape"/></filter></defs></svg>