<svg xmlns="http://www.w3.org/2000/svg" width="80" height="91" fill="none"><g filter="url(#a)"><path fill="#FFC43B" d="M40 25.688A13.813 13.813 0 1 0 53.813 39.5 13.827 13.827 0 0 0 40 25.687Zm-4.781 9.562a1.594 1.594 0 1 1 0 3.188 1.594 1.594 0 0 1 0-3.188Zm11.013 7.969c-1.367 2.362-3.638 3.718-6.232 3.718-2.594 0-4.865-1.354-6.232-3.718a1.063 1.063 0 1 1 1.839-1.063c.992 1.715 2.55 2.657 4.393 2.657 1.842 0 3.401-.944 4.393-2.657a1.064 1.064 0 0 1 1.792-.145 1.062 1.062 0 0 1 .047 1.208Zm-1.45-4.782a1.594 1.594 0 1 1 0-3.187 1.594 1.594 0 0 1 0 3.188Z"/></g><defs><filter id="a" width="77.8" height="77.8" x="1.1" y="15.6" color-interpolation-filters="sRGB" filterUnits="userSpaceOnUse"><feFlood flood-opacity="0" result="BackgroundImageFix"/><feColorMatrix in="SourceAlpha" result="hardAlpha" values="0 0 0 0 0 0 0 0 0 0 0 0 0 0 0 0 0 0 127 0"/><feOffset dy="1"/><feGaussianBlur stdDeviation=".5"/><feComposite in2="hardAlpha" operator="out"/><feColorMatrix values="0 0 0 0 0.8 0 0 0 0 0.707937 0 0 0 0 0 0 0 0 0.25 0"/><feBlend in2="BackgroundImageFix" result="effect1_dropShadow_592_1251"/><feColorMatrix in="SourceAlpha" result="hardAlpha" values="0 0 0 0 0 0 0 0 0 0 0 0 0 0 0 0 0 0 127 0"/><feOffset dy="3"/><feGaussianBlur stdDeviation="2.4"/><feComposite in2="hardAlpha" operator="out"/><feColorMatrix values="0 0 0 0 0.8 0 0 0 0 0.707937 0 0 0 0 0 0 0 0 0.05 0"/><feBlend in2="effect1_dropShadow_592_1251" result="effect2_dropShadow_592_1251"/><feColorMatrix in="SourceAlpha" result="hardAlpha" values="0 0 0 0 0 0 0 0 0 0 0 0 0 0 0 0 0 0 127 0"/><feOffset dy="14"/><feGaussianBlur stdDeviation="6.75"/><feComposite in2="hardAlpha" operator="out"/><feColorMatrix values="0 0 0 0 0.8 0 0 0 0 0.707937 0 0 0 0 0 0 0 0 0.05 0"/><feBlend in2="effect2_dropShadow_592_1251" result="effect3_dropShadow_592_1251"/><feColorMatrix in="SourceAlpha" result="hardAlpha" values="0 0 0 0 0 0 0 0 0 0 0 0 0 0 0 0 0 0 127 0"/><feOffset dy="6"/><feGaussianBlur stdDeviation="4.45"/><feComposite in2="hardAlpha" operator="out"/><feColorMatrix values="0 0 0 0 1 0 0 0 0 0.914841 0 0 0 0 0.26 0 0 0 0.25 0"/><feBlend in2="effect3_dropShadow_592_1251" result="effect4_dropShadow_592_1251"/><feColorMatrix in="SourceAlpha" result="hardAlpha" values="0 0 0 0 0 0 0 0 0 0 0 0 0 0 0 0 0 0 127 0"/><feOffset dy="15"/><feGaussianBlur stdDeviation="10.95"/><feComposite in2="hardAlpha" operator="out"/><feColorMatrix values="0 0 0 0 1 0 0 0 0 0.914841 0 0 0 0 0.26 0 0 0 0.15 0"/><feBlend in2="effect4_dropShadow_592_1251" result="effect5_dropShadow_592_1251"/><feBlend in="SourceGraphic" in2="effect5_dropShadow_592_1251" result="shape"/></filter></defs></svg>