<svg xmlns="http://www.w3.org/2000/svg" width="341" height="100" fill="none"><rect width="340.909" height="100" fill="#E8F4F9" rx="20"/><path stroke="#0996C7" stroke-linecap="round" stroke-linejoin="round" stroke-miterlimit="10" stroke-width="4.734" d="m40 73.937 13.292-13.291"/><path fill="#0996C7" stroke="#0996C7" stroke-linecap="round" stroke-linejoin="round" stroke-miterlimit="10" stroke-width="4.734" d="m87.973 42.411-11.97 15.442a6.562 6.562 0 0 1-5.188 2.538H53.546V43.784a6.55 6.55 0 0 1 2.287-4.965L70.76 26.062l17.213 16.35z"/><path stroke="#E8F4F9" stroke-linecap="round" stroke-linejoin="round" stroke-miterlimit="10" stroke-width="4.734" d="m68.302 52.219 8.194-8.171M61.742 45.68l8.194-8.172"/><path fill="#170F49" d="M120.76 62.023c-2.542 0-4.725-.54-6.548-1.62-1.823-1.102-3.226-2.626-4.209-4.568-.984-1.967-1.475-4.234-1.475-6.8 0-2.567.491-4.833 1.475-6.8.983-1.967 2.386-3.502 4.209-4.605 1.823-1.104 4.006-1.655 6.548-1.655 3.022 0 5.493.755 7.412 2.266 1.942 1.487 3.154 3.586 3.633 6.297h-5.072c-.312-1.368-.984-2.435-2.015-3.202-1.008-.792-2.351-1.188-4.03-1.188-2.326 0-4.149.792-5.468 2.375-1.32 1.583-1.979 3.753-1.979 6.512 0 2.758.659 4.929 1.979 6.512 1.319 1.559 3.142 2.338 5.468 2.338 1.679 0 3.022-.36 4.03-1.079 1.031-.743 1.703-1.763 2.015-3.058h5.072c-.479 2.59-1.691 4.617-3.633 6.08-1.919 1.463-4.39 2.195-7.412 2.195zm15.014-.432V35.687h4.605V61.59h-4.605zm17.873.432c-1.727 0-3.286-.396-4.677-1.188a8.935 8.935 0 0 1-3.274-3.273c-.791-1.416-1.187-3.047-1.187-4.893 0-1.847.408-3.466 1.223-4.857.816-1.416 1.907-2.519 3.274-3.31 1.391-.792 2.95-1.188 4.677-1.188 1.703 0 3.238.396 4.606 1.188a8.521 8.521 0 0 1 3.274 3.31c.815 1.39 1.223 3.01 1.223 4.857 0 1.846-.408 3.477-1.223 4.893a8.59 8.59 0 0 1-3.274 3.274c-1.392.791-2.939 1.187-4.642 1.187zm0-3.994c1.2 0 2.243-.444 3.13-1.33.888-.912 1.332-2.256 1.332-4.03 0-1.775-.444-3.107-1.332-3.994-.887-.911-1.918-1.367-3.094-1.367-1.223 0-2.278.456-3.166 1.367-.863.887-1.295 2.219-1.295 3.994 0 1.774.432 3.118 1.295 4.03.888.887 1.931 1.33 3.13 1.33zm19.948 3.994c-2.23 0-3.957-.696-5.181-2.087-1.199-1.391-1.799-3.43-1.799-6.116V43.746h4.57v9.642c0 1.535.311 2.71.935 3.526.624.815 1.607 1.223 2.95 1.223 1.272 0 2.315-.456 3.13-1.367.84-.911 1.26-2.183 1.26-3.814v-9.21h4.605v17.845h-4.066l-.36-3.022a6.236 6.236 0 0 1-2.41 2.518c-1.031.624-2.243.936-3.634.936zm23.4 0c-1.679 0-3.178-.408-4.497-1.224-1.319-.815-2.363-1.93-3.13-3.345-.768-1.416-1.151-3.023-1.151-4.821 0-1.8.383-3.394 1.151-4.786.767-1.415 1.811-2.518 3.13-3.31 1.319-.815 2.818-1.223 4.497-1.223 1.343 0 2.519.252 3.526.756a6.363 6.363 0 0 1 2.447 2.123V35.687h4.605V61.59h-4.102l-.503-2.554c-.576.791-1.344 1.487-2.303 2.086-.935.6-2.159.9-3.67.9zm.972-4.03c1.487 0 2.698-.491 3.633-1.475.96-1.007 1.439-2.29 1.439-3.85 0-1.559-.479-2.83-1.439-3.813-.935-1.008-2.146-1.511-3.633-1.511-1.464 0-2.675.492-3.634 1.475-.96.983-1.439 2.255-1.439 3.814 0 1.559.479 2.842 1.439 3.85.959 1.007 2.17 1.51 3.634 1.51zm14.295 3.598V43.746h4.102l.431 3.346a7.373 7.373 0 0 1 2.627-2.734c1.127-.696 2.446-1.044 3.957-1.044v4.857h-1.295c-1.007 0-1.907.156-2.698.468-.792.312-1.415.851-1.871 1.619-.432.767-.648 1.835-.648 3.202v8.131h-4.605zm22.619.432c-1.799 0-3.394-.384-4.785-1.152a8.337 8.337 0 0 1-3.274-3.238c-.791-1.39-1.187-2.998-1.187-4.82 0-1.847.384-3.49 1.151-4.93.792-1.439 1.871-2.554 3.238-3.346 1.391-.815 3.022-1.223 4.893-1.223 1.751 0 3.298.384 4.641 1.152a8.105 8.105 0 0 1 3.131 3.166c.767 1.319 1.151 2.794 1.151 4.425 0 .264-.012.54-.036.827 0 .288-.012.588-.036.9h-13.564c.096 1.391.576 2.482 1.439 3.274.888.791 1.955 1.187 3.202 1.187.936 0 1.715-.204 2.339-.611a3.978 3.978 0 0 0 1.439-1.656h4.677a8.512 8.512 0 0 1-1.691 3.095c-.767.911-1.727 1.63-2.878 2.158-1.127.528-2.411.792-3.85.792zm.036-14.967c-1.127 0-2.122.324-2.986.971-.863.624-1.415 1.583-1.655 2.879h8.887c-.072-1.176-.504-2.111-1.295-2.807-.792-.695-1.775-1.043-2.951-1.043zm20.172 14.967c-1.583 0-2.975-.252-4.174-.756-1.199-.527-2.159-1.247-2.878-2.158-.72-.912-1.151-1.967-1.295-3.166h4.641c.144.695.528 1.295 1.151 1.798.648.48 1.475.72 2.483.72 1.007 0 1.739-.204 2.194-.612.48-.407.72-.875.72-1.403 0-.767-.336-1.283-1.008-1.547-.671-.288-1.607-.563-2.806-.827a30.672 30.672 0 0 1-2.338-.612c-.792-.24-1.523-.54-2.195-.9a5.085 5.085 0 0 1-1.583-1.439c-.408-.6-.612-1.33-.612-2.194 0-1.583.624-2.914 1.871-3.994 1.271-1.08 3.046-1.619 5.325-1.619 2.111 0 3.79.492 5.037 1.475 1.271.984 2.027 2.339 2.266 4.066h-4.353c-.264-1.32-1.259-1.979-2.986-1.979-.864 0-1.535.168-2.015.504-.456.336-.683.755-.683 1.259 0 .528.347.947 1.043 1.26.696.311 1.619.599 2.77.863 1.247.288 2.387.611 3.418.971 1.056.336 1.895.852 2.519 1.547.623.672.935 1.643.935 2.914.024 1.104-.264 2.1-.863 2.986-.6.888-1.464 1.584-2.591 2.087-1.127.504-2.458.756-3.993.756zm18.916-.432c-1.871 0-3.37-.456-4.498-1.367-1.127-.911-1.691-2.53-1.691-4.857v-7.771h-3.058v-3.85h3.058l.54-4.785h4.066v4.785h4.821v3.85h-4.821v7.807c0 .863.179 1.463.539 1.799.384.312 1.032.468 1.943.468h2.231v3.921h-3.13zm15.297.432c-1.726 0-3.285-.396-4.677-1.188a8.935 8.935 0 0 1-3.274-3.273c-.791-1.416-1.187-3.047-1.187-4.893 0-1.847.408-3.466 1.223-4.857.816-1.416 1.907-2.519 3.274-3.31 1.391-.792 2.951-1.188 4.677-1.188 1.703 0 3.238.396 4.606 1.188a8.521 8.521 0 0 1 3.274 3.31c.815 1.39 1.223 3.01 1.223 4.857 0 1.846-.408 3.477-1.223 4.893a8.59 8.59 0 0 1-3.274 3.274c-1.391.791-2.939 1.187-4.642 1.187zm0-3.994c1.2 0 2.243-.444 3.131-1.33.887-.912 1.331-2.256 1.331-4.03 0-1.775-.444-3.107-1.331-3.994-.888-.911-1.919-1.367-3.095-1.367-1.223 0-2.278.456-3.166 1.367-.863.887-1.295 2.219-1.295 3.994 0 1.774.432 3.118 1.295 4.03.888.887 1.931 1.33 3.13 1.33z"/></svg>