<svg xmlns="http://www.w3.org/2000/svg" width="78" height="88" fill="none"><g filter="url(#a)"><path fill="#FF5117" d="M44.094 48.982a1.063 1.063 0 0 1-.89 1.643H23.609a1.062 1.062 0 0 1-.89-1.643 12.727 12.727 0 0 1 6.271-5.008 7.97 7.97 0 1 1 8.832 0 12.727 12.727 0 0 1 6.272 5.008Zm11.675-.02a12.733 12.733 0 0 0-6.26-4.988 7.97 7.97 0 0 0-8.04-13.723.534.534 0 0 0-.178.796 10.072 10.072 0 0 1 .483 11.946.531.531 0 0 0 .142.734 14.919 14.919 0 0 1 3.964 4.095c.422.646.594 1.423.485 2.187a.53.53 0 0 0 .524.616h8.01a1.062 1.062 0 0 0 1.026-.787 1.092 1.092 0 0 0-.156-.876Z"/></g><defs><filter id="a" width="77.8" height="77.8" x=".35" y="16.1" color-interpolation-filters="sRGB" filterUnits="userSpaceOnUse"><feFlood flood-opacity="0" result="BackgroundImageFix"/><feColorMatrix in="SourceAlpha" result="hardAlpha" values="0 0 0 0 0 0 0 0 0 0 0 0 0 0 0 0 0 0 127 0"/><feOffset dy="1"/><feGaussianBlur stdDeviation=".5"/><feComposite in2="hardAlpha" operator="out"/><feColorMatrix values="0 0 0 0 0.8 0 0 0 0 0.2 0 0 0 0 0 0 0 0 0.25 0"/><feBlend in2="BackgroundImageFix" result="effect1_dropShadow_592_1264"/><feColorMatrix in="SourceAlpha" result="hardAlpha" values="0 0 0 0 0 0 0 0 0 0 0 0 0 0 0 0 0 0 127 0"/><feOffset dy="3"/><feGaussianBlur stdDeviation="2.4"/><feComposite in2="hardAlpha" operator="out"/><feColorMatrix values="0 0 0 0 0.8 0 0 0 0 0.2 0 0 0 0 0 0 0 0 0.05 0"/><feBlend in2="effect1_dropShadow_592_1264" result="effect2_dropShadow_592_1264"/><feColorMatrix in="SourceAlpha" result="hardAlpha" values="0 0 0 0 0 0 0 0 0 0 0 0 0 0 0 0 0 0 127 0"/><feOffset dy="14"/><feGaussianBlur stdDeviation="6.75"/><feComposite in2="hardAlpha" operator="out"/><feColorMatrix values="0 0 0 0 0.8 0 0 0 0 0.2 0 0 0 0 0 0 0 0 0.05 0"/><feBlend in2="effect2_dropShadow_592_1264" result="effect3_dropShadow_592_1264"/><feColorMatrix in="SourceAlpha" result="hardAlpha" values="0 0 0 0 0 0 0 0 0 0 0 0 0 0 0 0 0 0 127 0"/><feOffset dy="6"/><feGaussianBlur stdDeviation="4.45"/><feComposite in2="hardAlpha" operator="out"/><feColorMatrix values="0 0 0 0 1 0 0 0 0 0.445 0 0 0 0 0.26 0 0 0 0.25 0"/><feBlend in2="effect3_dropShadow_592_1264" result="effect4_dropShadow_592_1264"/><feColorMatrix in="SourceAlpha" result="hardAlpha" values="0 0 0 0 0 0 0 0 0 0 0 0 0 0 0 0 0 0 127 0"/><feOffset dy="15"/><feGaussianBlur stdDeviation="10.95"/><feComposite in2="hardAlpha" operator="out"/><feColorMatrix values="0 0 0 0 1 0 0 0 0 0.445 0 0 0 0 0.26 0 0 0 0.15 0"/><feBlend in2="effect4_dropShadow_592_1264" result="effect5_dropShadow_592_1264"/><feBlend in="SourceGraphic" in2="effect5_dropShadow_592_1264" result="shape"/></filter></defs></svg>