<svg xmlns="http://www.w3.org/2000/svg" width="27" height="26" fill="none"><g filter="url(#a)"><path fill="#fff" d="M22 7.25h-1.125V6.5a2.625 2.625 0 0 0-2.625-2.625H4.75A2.625 2.625 0 0 0 2.125 6.5v8.25a2.625 2.625 0 0 0 2.625 2.625h9V18.5a2.625 2.625 0 0 0 2.625 2.625H22a2.625 2.625 0 0 0 2.625-2.625V9.875A2.625 2.625 0 0 0 22 7.25zM4.75 15.125a.375.375 0 0 1-.375-.375V6.5a.375.375 0 0 1 .375-.375h13.5a.375.375 0 0 1 .375.375v.75h-2.25a2.625 2.625 0 0 0-2.625 2.625v5.25h-9zM22.375 18.5a.375.375 0 0 1-.375.375h-5.625A.375.375 0 0 1 16 18.5V9.875a.375.375 0 0 1 .375-.375H22a.375.375 0 0 1 .375.375V18.5zm-9.75 1.5a1.125 1.125 0 0 1-1.125 1.125H9.25a1.125 1.125 0 1 1 0-2.25h2.25A1.125 1.125 0 0 1 12.625 20zm8.25-7.875a1.125 1.125 0 0 1-1.125 1.125h-1.125a1.125 1.125 0 1 1 0-2.25h1.125a1.125 1.125 0 0 1 1.125 1.125z"/></g><defs><filter id="a" width="28" height="28" x="-1" y=".5" color-interpolation-filters="sRGB" filterUnits="userSpaceOnUse"><feFlood flood-opacity="0" result="BackgroundImageFix"/><feColorMatrix in="SourceAlpha" result="hardAlpha" values="0 0 0 0 0 0 0 0 0 0 0 0 0 0 0 0 0 0 127 0"/><feOffset dy="2"/><feGaussianBlur stdDeviation="1"/><feComposite in2="hardAlpha" operator="out"/><feColorMatrix values="0 0 0 0 0.186275 0 0 0 0 0.0176471 0 0 0 0 0.382353 0 0 0 0.4 0"/><feBlend in2="BackgroundImageFix" result="effect1_dropShadow_284_894"/><feBlend in="SourceGraphic" in2="effect1_dropShadow_284_894" result="shape"/></filter></defs></svg>