<svg xmlns="http://www.w3.org/2000/svg" width="314" height="100" fill="none"><rect width="312.68" height="100" x=".903" fill="#FFF6E9" rx="20"/><path fill="#170F49" d="M93.052 63V37.59h5.517l8.095 16.117 7.987-16.118h5.518V63h-4.647V45.467l-7.079 13.903h-3.666l-7.079-13.903V63h-4.646zm38.145.436c-1.549 0-2.819-.242-3.811-.726-.993-.509-1.731-1.174-2.215-1.997a5.271 5.271 0 0 1-.726-2.723c0-1.67.654-3.025 1.961-4.065 1.306-1.041 3.267-1.561 5.88-1.561h4.574v-.436c0-1.234-.351-2.142-1.052-2.722-.702-.581-1.573-.872-2.614-.872-.944 0-1.767.23-2.469.69-.701.436-1.137 1.089-1.306 1.96h-4.538c.121-1.307.557-2.444 1.307-3.412.774-.968 1.766-1.706 2.976-2.214 1.211-.533 2.566-.8 4.066-.8 2.566 0 4.586.642 6.063 1.925 1.476 1.283 2.214 3.098 2.214 5.445V63h-3.957l-.436-2.904a6.652 6.652 0 0 1-2.25 2.396c-.944.629-2.166.944-3.667.944zm1.053-3.63c1.331 0 2.36-.436 3.086-1.307.75-.872 1.222-1.949 1.415-3.231h-3.956c-1.235 0-2.118.23-2.65.69-.533.435-.799.98-.799 1.633 0 .702.266 1.246.799 1.634.532.387 1.234.58 2.105.58zM145.941 63V44.995h4.138l.436 3.376a7.437 7.437 0 0 1 2.65-2.76c1.137-.701 2.469-1.052 3.993-1.052v4.9h-1.307c-1.016 0-1.924.158-2.722.472-.799.315-1.428.86-1.888 1.634-.436.775-.653 1.852-.653 3.23V63h-4.647zm14.393 0V36.863h4.647v15.428l6.389-7.296h5.517l-7.369 8.204L178.085 63h-5.808l-7.296-9.039V63h-4.647zm27.892.436c-1.815 0-3.425-.388-4.828-1.162a8.41 8.41 0 0 1-3.304-3.267c-.798-1.404-1.198-3.025-1.198-4.864 0-1.864.388-3.522 1.162-4.974.799-1.452 1.888-2.577 3.267-3.376 1.404-.823 3.049-1.234 4.937-1.234 1.767 0 3.328.387 4.683 1.162a8.177 8.177 0 0 1 3.158 3.194c.775 1.331 1.162 2.82 1.162 4.465 0 .266-.012.545-.036.835 0 .29-.013.593-.037.908h-13.685c.096 1.403.58 2.504 1.452 3.303.895.799 1.972 1.198 3.231 1.198.943 0 1.73-.206 2.359-.617a4.008 4.008 0 0 0 1.452-1.67h4.719a8.575 8.575 0 0 1-1.706 3.122c-.774.92-1.742 1.646-2.904 2.178-1.137.532-2.432.799-3.884.799zm.036-15.102c-1.137 0-2.142.327-3.013.98-.871.63-1.428 1.598-1.67 2.904h8.967c-.073-1.185-.509-2.13-1.307-2.831-.799-.702-1.791-1.053-2.977-1.053zM208.876 63c-1.887 0-3.4-.46-4.537-1.38-1.138-.92-1.706-2.553-1.706-4.9v-7.841h-3.086v-3.884h3.086l.544-4.828h4.102v4.828h4.865v3.884h-4.865v7.877c0 .871.182 1.476.545 1.815.387.315 1.04.472 1.96.472h2.251V63h-3.159zm7.257 7.986V44.995h4.138l.509 2.577c.58-.799 1.343-1.5 2.287-2.105.968-.605 2.214-.908 3.739-.908 1.694 0 3.206.411 4.537 1.234s2.384 1.948 3.158 3.376c.775 1.428 1.162 3.05 1.162 4.865 0 1.815-.387 3.436-1.162 4.864a8.913 8.913 0 0 1-3.158 3.34c-1.331.798-2.843 1.198-4.537 1.198-1.356 0-2.541-.255-3.558-.763a6.413 6.413 0 0 1-2.468-2.142v10.455h-4.647zm9.692-11.616c1.477 0 2.699-.496 3.667-1.488.968-.993 1.452-2.275 1.452-3.848s-.484-2.868-1.452-3.885c-.968-1.016-2.19-1.524-3.667-1.524-1.5 0-2.734.508-3.702 1.524-.944.993-1.416 2.275-1.416 3.848s.472 2.868 1.416 3.885c.968.992 2.202 1.488 3.702 1.488zM239.814 63V44.995h4.138l.436 3.376a7.437 7.437 0 0 1 2.65-2.76c1.137-.701 2.468-1.052 3.993-1.052v4.9h-1.307c-1.016 0-1.924.158-2.722.472-.799.315-1.428.86-1.888 1.634-.436.775-.654 1.852-.654 3.23V63h-4.646zm22.713.436c-1.742 0-3.315-.4-4.719-1.198a9.015 9.015 0 0 1-3.303-3.304c-.799-1.428-1.198-3.073-1.198-4.937 0-1.863.411-3.497 1.234-4.9.823-1.428 1.924-2.541 3.304-3.34 1.403-.799 2.976-1.198 4.719-1.198 1.718 0 3.267.4 4.646 1.198a8.594 8.594 0 0 1 3.304 3.34c.823 1.403 1.234 3.037 1.234 4.9 0 1.864-.411 3.51-1.234 4.937a8.665 8.665 0 0 1-3.304 3.304c-1.403.798-2.964 1.198-4.683 1.198zm0-4.03c1.211 0 2.263-.447 3.159-1.343.895-.92 1.343-2.275 1.343-4.066 0-1.79-.448-3.134-1.343-4.03-.896-.919-1.936-1.379-3.122-1.379-1.234 0-2.299.46-3.195 1.38-.871.895-1.307 2.238-1.307 4.03 0 1.79.436 3.145 1.307 4.065.896.895 1.948 1.343 3.158 1.343z"/><rect width="9.285" height="14.434" x="40.903" y="55.323" fill="#F90" rx="4.643"/><rect width="9.285" height="9.285" x="40.903" y="33.229" fill="#170F49" rx="4.643"/><rect width="9.285" height="25.783" x="54.413" y="43.975" fill="#F90" rx="4.643"/><rect width="9.285" height="36.528" x="67.923" y="33.229" fill="#F90" rx="4.643"/></svg>