<svg xmlns="http://www.w3.org/2000/svg" width="79" height="91" fill="none"><g filter="url(#a)"><path fill="#9A17FF" d="M40 27.813a12.75 12.75 0 1 0 12.75 12.75A12.764 12.764 0 0 0 40 27.813Zm6.064 8.189-5.312 5.312a1.064 1.064 0 0 1-1.734-1.158 1.06 1.06 0 0 1 .23-.345l5.313-5.313a1.064 1.064 0 0 1 1.734 1.159 1.064 1.064 0 0 1-.23.345ZM35.75 24.625a1.062 1.062 0 0 1 1.063-1.063h6.374a1.062 1.062 0 1 1 0 2.125h-6.374a1.062 1.062 0 0 1-1.063-1.062Z"/></g><defs><filter id="a" width="77.8" height="77.8" x="1.1" y="15.6" color-interpolation-filters="sRGB" filterUnits="userSpaceOnUse"><feFlood flood-opacity="0" result="BackgroundImageFix"/><feColorMatrix in="SourceAlpha" result="hardAlpha" values="0 0 0 0 0 0 0 0 0 0 0 0 0 0 0 0 0 0 127 0"/><feOffset dy="1"/><feGaussianBlur stdDeviation=".5"/><feComposite in2="hardAlpha" operator="out"/><feColorMatrix values="0 0 0 0 0.451724 0 0 0 0 0 0 0 0 0 0.8 0 0 0 0.25 0"/><feBlend in2="BackgroundImageFix" result="effect1_dropShadow_592_1239"/><feColorMatrix in="SourceAlpha" result="hardAlpha" values="0 0 0 0 0 0 0 0 0 0 0 0 0 0 0 0 0 0 127 0"/><feOffset dy="3"/><feGaussianBlur stdDeviation="2.4"/><feComposite in2="hardAlpha" operator="out"/><feColorMatrix values="0 0 0 0 0.451724 0 0 0 0 0 0 0 0 0 0.8 0 0 0 0.05 0"/><feBlend in2="effect1_dropShadow_592_1239" result="effect2_dropShadow_592_1239"/><feColorMatrix in="SourceAlpha" result="hardAlpha" values="0 0 0 0 0 0 0 0 0 0 0 0 0 0 0 0 0 0 127 0"/><feOffset dy="14"/><feGaussianBlur stdDeviation="6.75"/><feComposite in2="hardAlpha" operator="out"/><feColorMatrix values="0 0 0 0 0.451724 0 0 0 0 0 0 0 0 0 0.8 0 0 0 0.05 0"/><feBlend in2="effect2_dropShadow_592_1239" result="effect3_dropShadow_592_1239"/><feColorMatrix in="SourceAlpha" result="hardAlpha" values="0 0 0 0 0 0 0 0 0 0 0 0 0 0 0 0 0 0 127 0"/><feOffset dy="6"/><feGaussianBlur stdDeviation="4.45"/><feComposite in2="hardAlpha" operator="out"/><feColorMatrix values="0 0 0 0 0.677845 0 0 0 0 0.26 0 0 0 0 1 0 0 0 0.25 0"/><feBlend in2="effect3_dropShadow_592_1239" result="effect4_dropShadow_592_1239"/><feColorMatrix in="SourceAlpha" result="hardAlpha" values="0 0 0 0 0 0 0 0 0 0 0 0 0 0 0 0 0 0 127 0"/><feOffset dy="15"/><feGaussianBlur stdDeviation="10.95"/><feComposite in2="hardAlpha" operator="out"/><feColorMatrix values="0 0 0 0 0.677845 0 0 0 0 0.26 0 0 0 0 1 0 0 0 0.15 0"/><feBlend in2="effect4_dropShadow_592_1239" result="effect5_dropShadow_592_1239"/><feBlend in="SourceGraphic" in2="effect5_dropShadow_592_1239" result="shape"/></filter></defs></svg>