<svg xmlns="http://www.w3.org/2000/svg" width="24" height="24" fill="none"><g clip-path="url(#a)"><g clip-path="url(#b)"><mask id="c" width="20" height="19" x="2" y="3" maskUnits="userSpaceOnUse" style="mask-type:luminance"><path fill="#fff" d="M2.583 3.23h18.758v18.76H2.583V3.23Z"/></mask><g mask="url(#c)"><path fill="#121212" fill-rule="evenodd" d="M7.682 3.605h5.723c.264 0 .43.284.302.513l-2.94 5.29h-2.2c-1.843 0-3.009-1.98-2.113-3.591l1.228-2.212Zm0 6.586h7.855a.69.69 0 0 1 .592 1.046l-2.597 4.344H8.925c-1.968 0-3.184-2.146-2.173-3.835l.93-1.555Zm11.094 6.08H7.68l-2.275 3.771c-.417.69.08 1.571.887 1.571H16.57l2.698-4.47a.577.577 0 0 0-.492-.872Z" clip-rule="evenodd"/></g></g></g><defs><clipPath id="a"><path fill="#fff" d="M.5.5h23v23H.5z"/></clipPath><clipPath id="b"><path fill="#fff" d="M3-2h18v28H3z"/></clipPath></defs></svg>