<svg xmlns="http://www.w3.org/2000/svg" width="22" height="23" fill="none"><path fill="#1C17FF" d="M10.961.51c-.26.506-.914 3.998-1.253 6.822-.13.96-.366 1.653-.6 1.786-.21.107-1.385.373-2.612.613-2.037.373-2.872.826-2.872 1.546 0 .56 1.149 1.252 2.846 1.679 1.018.24 2.115.666 2.402.906.34.266.758 1.439 1.28 3.41 1.07 4.238 1.593 5.17 2.585 4.611.68-.346.758-.64 1.306-4.903.261-1.999.522-3.705.627-3.785.078-.08 1.227-.666 2.559-1.305 3.577-1.733 4.335-2.585 3.003-3.465-.496-.346-1.07-.4-3.003-.24-2.664.213-3.056.054-3.264-1.332-.079-.453-.262-1.84-.444-3.092-.366-2.771-.81-3.73-1.672-3.73-.34 0-.757.213-.888.48Zm1.15 5.037c.417 3.784.887 4.344 3.446 4.344.914 0 1.646.08 1.646.186 0 .134-.732.507-1.62.88-2.22.933-2.506 1.439-2.872 4.85-.183 1.6-.392 2.878-.522 2.878-.105 0-.314-.453-.444-1.012a142.1 142.1 0 0 0-.653-2.559c-.47-1.919-1.149-2.665-2.846-3.251-1.071-.373-1.228-.48-.862-.693.261-.133.992-.267 1.645-.293 1.41 0 1.436-.027 2.037-3.998.261-1.572.548-2.851.679-2.851.104 0 .287.693.366 1.519Zm7.05-2.558c-1.436 1.385-1.802 2.105-1.019 2.105.497 0 3.29-2.665 3.16-3.038-.209-.64-.783-.373-2.141.933ZM.333 3.628c-.287.746 1.854 3.065 2.846 3.065 1.123 0 .47-1.732-1.044-2.798C1.012 3.122.542 3.069.333 3.628Z"/><path fill="#1C17FF" d="M16.158 16.154c0 .426 1.88 1.439 2.69 1.465.887 0 .417-.826-.758-1.332-1.436-.64-1.932-.666-1.932-.133Z"/></svg>