<svg xmlns="http://www.w3.org/2000/svg" width="288" height="100" fill="none"><rect width="287.116" height="100" x=".132" fill="#FFF6E8" rx="20"/><path fill="#001E79" d="m92.066 51.773-6.112 2.954a.893.893 0 0 1-.362.088l-33.644 1.028a.894.894 0 0 1-.546-.165l-5.415-3.854a.894.894 0 0 1 .059-1.495L68.137 37.1a.894.894 0 0 1 .901-.011l23.08 13.103a.894.894 0 0 1-.052 1.582zM112.558 63.9V40.125h15.521v3.498h-11.174v6.522h10.156v3.396h-10.156v6.86h11.174v3.5h-15.521zm27.277.408c-1.585 0-3-.385-4.245-1.155-1.246-.77-2.23-1.823-2.955-3.159-.725-1.336-1.087-2.853-1.087-4.551s.362-3.204 1.087-4.517c.725-1.336 1.709-2.378 2.955-3.125 1.245-.77 2.66-1.155 4.245-1.155 1.268 0 2.378.238 3.329.713a6.003 6.003 0 0 1 2.31 2.004v-9.917h4.347V63.9h-3.872l-.475-2.411c-.544.747-1.268 1.404-2.174 1.97-.883.566-2.038.849-3.465.849zm.917-3.804c1.404 0 2.548-.465 3.431-1.393.906-.95 1.358-2.162 1.358-3.634s-.452-2.672-1.358-3.6c-.883-.951-2.027-1.427-3.431-1.427-1.381 0-2.524.464-3.43 1.393-.906.928-1.359 2.128-1.359 3.6s.453 2.683 1.359 3.634c.906.951 2.049 1.427 3.43 1.427zm19.813 3.804c-2.105 0-3.736-.657-4.89-1.97-1.133-1.313-1.699-3.238-1.699-5.774v-9.51h4.314v9.102c0 1.45.294 2.559.883 3.329s1.517 1.154 2.785 1.154c1.2 0 2.185-.43 2.955-1.29.792-.86 1.189-2.06 1.189-3.6v-8.695h4.347V63.9h-3.838l-.339-2.853a5.894 5.894 0 0 1-2.276 2.378c-.974.588-2.117.883-3.431.883zm22.6 0c-1.72 0-3.238-.374-4.551-1.121a8.285 8.285 0 0 1-3.125-3.125c-.747-1.336-1.12-2.864-1.12-4.585 0-1.72.373-3.25 1.12-4.585a8.285 8.285 0 0 1 3.125-3.125c1.313-.747 2.831-1.12 4.551-1.12 2.152 0 3.963.565 5.435 1.697 1.472 1.11 2.411 2.65 2.819 4.62h-4.585c-.227-.816-.68-1.45-1.359-1.902-.657-.476-1.438-.714-2.344-.714-1.2 0-2.219.453-3.056 1.359-.838.906-1.257 2.162-1.257 3.77s.419 2.864 1.257 3.77c.837.906 1.856 1.359 3.056 1.359.906 0 1.687-.227 2.344-.68.679-.453 1.132-1.098 1.359-1.936h4.585c-.408 1.902-1.347 3.43-2.819 4.585-1.472 1.155-3.283 1.733-5.435 1.733zm17.92 0c-1.449 0-2.637-.227-3.566-.68-.928-.475-1.619-1.098-2.072-1.868a4.93 4.93 0 0 1-.679-2.547c0-1.562.611-2.83 1.834-3.804 1.223-.974 3.057-1.46 5.502-1.46h4.28v-.408c0-1.155-.328-2.004-.985-2.547-.657-.544-1.472-.816-2.445-.816-.884 0-1.653.216-2.31.646-.657.407-1.064 1.019-1.223 1.834h-4.245c.113-1.223.52-2.287 1.222-3.193.725-.906 1.653-1.596 2.785-2.072 1.133-.498 2.401-.747 3.804-.747 2.401 0 4.291.6 5.673 1.8 1.381 1.2 2.071 2.899 2.071 5.095v10.36h-3.702l-.407-2.718a6.226 6.226 0 0 1-2.106 2.242c-.883.588-2.027.883-3.431.883zm.985-3.397c1.246 0 2.208-.407 2.887-1.223.702-.815 1.144-1.822 1.325-3.022h-3.702c-1.155 0-1.981.215-2.48.645-.498.408-.747.917-.747 1.528 0 .657.249 1.166.747 1.529.499.362 1.155.543 1.97.543zm20.084 2.99c-1.766 0-3.181-.431-4.245-1.292-1.065-.86-1.597-2.388-1.597-4.585v-7.336h-2.887v-3.634h2.887l.51-4.518h3.838v4.518h4.551v3.634h-4.551v7.37c0 .815.169 1.382.509 1.699.362.294.974.441 1.834.441h2.106V63.9h-2.955zm12.598.407c-1.45 0-2.638-.227-3.567-.68-.928-.475-1.619-1.098-2.072-1.868a4.94 4.94 0 0 1-.679-2.547c0-1.562.611-2.83 1.834-3.804 1.223-.974 3.057-1.46 5.502-1.46h4.28v-.408c0-1.155-.328-2.004-.985-2.547-.657-.544-1.472-.816-2.445-.816-.884 0-1.653.216-2.31.646-.657.407-1.064 1.019-1.223 1.834h-4.245c.113-1.223.52-2.287 1.222-3.193.725-.906 1.653-1.596 2.785-2.072 1.133-.498 2.401-.747 3.805-.747 2.4 0 4.29.6 5.672 1.8 1.381 1.2 2.071 2.899 2.071 5.095v10.36h-3.702l-.407-2.718a6.226 6.226 0 0 1-2.106 2.242c-.883.588-2.027.883-3.43.883zm.984-3.397c1.246 0 2.208-.407 2.887-1.223.702-.815 1.144-1.822 1.325-3.022h-3.702c-1.155 0-1.981.215-2.479.645-.499.408-.748.917-.748 1.528 0 .657.249 1.166.748 1.529.498.362 1.154.543 1.969.543z"/><path fill="#F1641E" d="M54.886 53.223h28.017v16.129H54.886z"/><path stroke="#F1641E" stroke-linecap="round" stroke-linejoin="round" stroke-miterlimit="10" stroke-width="4.022" d="m84.626 56.257 10.437-3.84a.894.894 0 0 0 .142-1.611L70.698 36.493a3.575 3.575 0 0 0-3.606 0L42.585 50.806a.894.894 0 0 0 .142 1.61l10.437 3.841m-10.765-5.13v11.464m26.496.597c-8.687 0-15.731 1.75-15.731 3.91 0 2.159 7.044 3.908 15.73 3.908 8.688 0 15.731-1.749 15.731-3.909 0-2.16-7.043-3.909-15.73-3.909z"/><path stroke="#F1641E" stroke-linecap="round" stroke-linejoin="round" stroke-miterlimit="10" stroke-width="4.022" d="M84.625 67.398V55.67c0-2.15-6.992-3.91-15.731-3.91-8.74 0-15.73 1.76-15.73 3.91v11.727"/><path fill="#001E79" fill-rule="evenodd" d="M66.077 34.756a5.586 5.586 0 0 1 5.635 0l24.494 14.306c2.128 1.242 1.84 4.403-.478 5.24l-8.529 3.08-1.366-3.782 6.282-2.27-22.432-13.1a1.564 1.564 0 0 0-1.577 0L45.65 51.343l6.275 2.302-1.385 3.776-6.13-2.248v9.428h-4.022V52.777c-.565-1.267-.205-2.898 1.184-3.71l24.505-14.31z" clip-rule="evenodd"/></svg>