<svg xmlns="http://www.w3.org/2000/svg" width="78" height="89" fill="none"><g filter="url(#a)"><path fill="#1C17FF" d="M53.875 49.625h-1.063V41.75a2.32 2.32 0 0 0-.622-1.591 2.067 2.067 0 0 0-1.502-.659h-5.313V29.375a2.32 2.32 0 0 0-.622-1.591 2.067 2.067 0 0 0-1.503-.659h-8.5c-.564 0-1.104.237-1.503.659a2.32 2.32 0 0 0-.622 1.591v4.5h-5.313c-.563 0-1.104.237-1.502.659a2.32 2.32 0 0 0-.622 1.591v13.5h-1.063c-.282 0-.552.118-.751.33a1.16 1.16 0 0 0-.311.795c0 .298.111.584.31.795.2.212.47.33.752.33h29.75c.282 0 .552-.118.751-.33.2-.21.312-.497.312-.795a1.16 1.16 0 0 0-.312-.795 1.03 1.03 0 0 0-.751-.33Zm-21.25 0h-5.313v-13.5h5.313v13.5Zm7.969-9c0 .298-.112.584-.311.795-.2.212-.47.33-.752.33-.282 0-.552-.118-.751-.33a1.16 1.16 0 0 1-.311-.795v-4.064l-.196.069a1.006 1.006 0 0 1-.81-.061 1.073 1.073 0 0 1-.328-.27 1.186 1.186 0 0 1-.148-1.24c.063-.132.149-.25.254-.346a1.06 1.06 0 0 1 .36-.218l1.594-.562a1.006 1.006 0 0 1 .958.154c.136.104.247.242.324.4.077.159.117.335.117.513v5.625Zm10.093 9h-5.312V41.75h5.313v7.875Z"/></g><defs><filter id="a" width="77.8" height="79.8" x=".1" y="14.6" color-interpolation-filters="sRGB" filterUnits="userSpaceOnUse"><feFlood flood-opacity="0" result="BackgroundImageFix"/><feColorMatrix in="SourceAlpha" result="hardAlpha" values="0 0 0 0 0 0 0 0 0 0 0 0 0 0 0 0 0 0 127 0"/><feOffset dy="1"/><feGaussianBlur stdDeviation=".5"/><feComposite in2="hardAlpha" operator="out"/><feColorMatrix values="0 0 0 0 0.0698415 0 0 0 0 0.0548944 0 0 0 0 0.748439 0 0 0 0.25 0"/><feBlend in2="BackgroundImageFix" result="effect1_dropShadow_590_1232"/><feColorMatrix in="SourceAlpha" result="hardAlpha" values="0 0 0 0 0 0 0 0 0 0 0 0 0 0 0 0 0 0 127 0"/><feOffset dy="3"/><feGaussianBlur stdDeviation="2.4"/><feComposite in2="hardAlpha" operator="out"/><feColorMatrix values="0 0 0 0 0.0698415 0 0 0 0 0.0548944 0 0 0 0 0.748439 0 0 0 0.05 0"/><feBlend in2="effect1_dropShadow_590_1232" result="effect2_dropShadow_590_1232"/><feColorMatrix in="SourceAlpha" result="hardAlpha" values="0 0 0 0 0 0 0 0 0 0 0 0 0 0 0 0 0 0 127 0"/><feOffset dy="14"/><feGaussianBlur stdDeviation="6.75"/><feComposite in2="hardAlpha" operator="out"/><feColorMatrix values="0 0 0 0 0.0698415 0 0 0 0 0.0548944 0 0 0 0 0.748439 0 0 0 0.05 0"/><feBlend in2="effect2_dropShadow_590_1232" result="effect3_dropShadow_590_1232"/><feColorMatrix in="SourceAlpha" result="hardAlpha" values="0 0 0 0 0 0 0 0 0 0 0 0 0 0 0 0 0 0 127 0"/><feOffset dy="6"/><feGaussianBlur stdDeviation="4.45"/><feComposite in2="hardAlpha" operator="out"/><feColorMatrix values="0 0 0 0 0.376542 0 0 0 0 0.3649 0 0 0 0 0.9051 0 0 0 0.25 0"/><feBlend in2="effect3_dropShadow_590_1232" result="effect4_dropShadow_590_1232"/><feColorMatrix in="SourceAlpha" result="hardAlpha" values="0 0 0 0 0 0 0 0 0 0 0 0 0 0 0 0 0 0 127 0"/><feOffset dy="15"/><feGaussianBlur stdDeviation="10.95"/><feComposite in2="hardAlpha" operator="out"/><feColorMatrix values="0 0 0 0 0.3649 0 0 0 0 0.68902 0 0 0 0 0.9051 0 0 0 0.15 0"/><feBlend in2="effect4_dropShadow_590_1232" result="effect5_dropShadow_590_1232"/><feBlend in="SourceGraphic" in2="effect5_dropShadow_590_1232" result="shape"/></filter></defs></svg>