<svg xmlns="http://www.w3.org/2000/svg" width="312" height="100" fill="none"><rect width="311.398" height="100" x=".134" fill="#F3F2FF" rx="20"/><rect width="32" height="8" x="53.233" y="62.966" fill="#635BFF" rx="4"/><circle cx="56.109" cy="54.941" r="15.975" fill="#635BFF"/><ellipse cx="80.788" cy="51" fill="#8E88FF" rx="19.556" ry="20"/><path fill="#170F49" d="M126.537 61.86c-2.387 0-4.436-.507-6.148-1.52-1.711-1.036-3.029-2.466-3.952-4.29-.923-1.846-1.385-3.974-1.385-6.384s.462-4.537 1.385-6.384c.923-1.846 2.241-3.287 3.952-4.323 1.712-1.036 3.761-1.554 6.148-1.554 2.837 0 5.156.71 6.958 2.128 1.824 1.396 2.961 3.367 3.411 5.911h-4.762c-.293-1.283-.923-2.286-1.892-3.006-.946-.743-2.207-1.115-3.783-1.115-2.184 0-3.896.743-5.134 2.23-1.239 1.486-1.858 3.524-1.858 6.113 0 2.59.619 4.628 1.858 6.114 1.238 1.464 2.95 2.196 5.134 2.196 1.576 0 2.837-.338 3.783-1.014.969-.698 1.599-1.655 1.892-2.87h4.762c-.45 2.431-1.587 4.334-3.411 5.708-1.802 1.373-4.121 2.06-6.958 2.06zm14.095-.405v-24.32h4.324v24.32h-4.324zm16.781.405c-1.622 0-3.085-.371-4.391-1.114a8.377 8.377 0 0 1-3.074-3.074c-.743-1.329-1.115-2.86-1.115-4.594 0-1.734.383-3.254 1.149-4.56.765-1.329 1.79-2.364 3.073-3.108 1.306-.743 2.77-1.114 4.392-1.114 1.598 0 3.04.371 4.323 1.114a7.996 7.996 0 0 1 3.074 3.108c.765 1.306 1.148 2.826 1.148 4.56 0 1.734-.383 3.265-1.148 4.594a8.06 8.06 0 0 1-3.074 3.074c-1.306.743-2.758 1.114-4.357 1.114zm0-3.75c1.126 0 2.105-.416 2.938-1.249.834-.856 1.25-2.117 1.25-3.783s-.416-2.916-1.25-3.75c-.833-.855-1.801-1.283-2.904-1.283-1.149 0-2.14.428-2.973 1.284-.811.833-1.216 2.083-1.216 3.749s.405 2.927 1.216 3.783c.833.833 1.813 1.25 2.939 1.25zm18.728 3.75c-2.095 0-3.716-.653-4.864-1.959-1.126-1.306-1.689-3.22-1.689-5.742V44.7h4.29v9.053c0 1.44.292 2.544.878 3.31.585.765 1.509 1.148 2.77 1.148 1.193 0 2.173-.428 2.938-1.283.788-.856 1.182-2.05 1.182-3.58V44.7h4.324v16.754h-3.817l-.338-2.837a5.856 5.856 0 0 1-2.263 2.364c-.968.585-2.105.878-3.411.878zm21.969 0c-1.577 0-2.984-.383-4.223-1.148-1.238-.766-2.218-1.813-2.938-3.142-.721-1.328-1.081-2.837-1.081-4.526 0-1.689.36-3.186 1.081-4.492.72-1.329 1.7-2.365 2.938-3.108 1.239-.766 2.646-1.148 4.223-1.148 1.261 0 2.364.236 3.31.71a5.968 5.968 0 0 1 2.297 1.992v-9.863h4.323v24.32h-3.85l-.473-2.398c-.541.743-1.261 1.396-2.162 1.959-.878.563-2.027.844-3.445.844zm.912-3.783c1.396 0 2.533-.462 3.411-1.385.901-.946 1.351-2.15 1.351-3.614s-.45-2.657-1.351-3.58c-.878-.946-2.015-1.42-3.411-1.42-1.374 0-2.511.462-3.412 1.386-.901.923-1.351 2.117-1.351 3.58 0 1.464.45 2.669 1.351 3.614.901.946 2.038 1.42 3.412 1.42zm13.421 10.809V44.7h3.851l.473 2.398c.54-.743 1.249-1.396 2.128-1.959.9-.563 2.06-.844 3.479-.844 1.576 0 2.983.383 4.222 1.148 1.238.766 2.218 1.813 2.939 3.142.72 1.328 1.081 2.837 1.081 4.526 0 1.689-.361 3.197-1.081 4.526a8.303 8.303 0 0 1-2.939 3.108c-1.239.743-2.646 1.114-4.222 1.114-1.261 0-2.365-.236-3.31-.71a5.962 5.962 0 0 1-2.297-1.992v9.728h-4.324zm9.019-10.809c1.373 0 2.511-.462 3.411-1.385.901-.923 1.351-2.117 1.351-3.58 0-1.464-.45-2.669-1.351-3.614-.9-.946-2.038-1.42-3.411-1.42-1.396 0-2.545.474-3.446 1.42-.878.923-1.317 2.116-1.317 3.58s.439 2.668 1.317 3.614c.901.923 2.05 1.385 3.446 1.385zm18.792 3.783c-1.441 0-2.624-.225-3.547-.675-.923-.473-1.61-1.093-2.06-1.858a4.899 4.899 0 0 1-.676-2.533c0-1.554.608-2.815 1.824-3.784 1.216-.968 3.04-1.452 5.472-1.452h4.256v-.405c0-1.149-.326-1.993-.979-2.534-.653-.54-1.464-.81-2.432-.81-.879 0-1.644.214-2.297.641-.653.406-1.059 1.014-1.216 1.824h-4.223c.113-1.216.518-2.274 1.216-3.175.721-.9 1.644-1.587 2.77-2.06 1.126-.496 2.387-.743 3.783-.743 2.387 0 4.268.596 5.641 1.79 1.374 1.193 2.061 2.882 2.061 5.067v10.302h-3.682l-.405-2.702a6.198 6.198 0 0 1-2.095 2.229c-.878.585-2.015.878-3.411.878zm.979-3.378c1.239 0 2.196-.405 2.871-1.216.699-.81 1.138-1.812 1.318-3.006h-3.682c-1.148 0-1.97.214-2.466.642-.495.405-.743.912-.743 1.52 0 .653.248 1.16.743 1.52.496.36 1.149.54 1.959.54zm14.273 10.404 3.884-8.546h-1.013l-6.519-15.639h4.695l4.695 11.788 4.898-11.788h4.594L260.1 68.886h-4.594z"/></svg>